<svg width="192" height="64" viewBox="0 0 192 64" fill="none" xmlns="http://www.w3.org/2000/svg"><path d="M117.649 1C94.4177 2.85652 70.8422 -0.830736 47.6759 2.43458C35.0435 4.21513 21.9618 7.21348 10.521 15.8479C5.98648 19.2701 -2.51354 28.243 2.56961 37.1513C5.99884 43.1611 11.8588 45.7739 16.6412 48.2693C26.9177 53.6313 37.6987 56.0312 48.447 58.3113C63.0517 61.4095 77.804 62.4198 92.5412 62.8302C106.31 63.2137 120.08 63.078 133.792 61.037C145.539 59.2885 157.362 57.2794 168.875 53.2903C175.097 51.1345 183.576 49.2261 188.729 43.1048C198.22 31.8323 175.084 17.2432 172.006 15.8479C148.879 5.36256 120.922 3.72546 96.8302 2.29112" stroke="#657DF8" stroke-width="2" stroke-linecap="round"></path></svg>