<svg width="18" height="18" viewBox="0 0 18 18" fill="none" xmlns="http://www.w3.org/2000/svg"><g clip-path="url(#clip0_1423_21346)"><mask id="mask0_1423_21346" style="mask-type:luminance" maskUnits="userSpaceOnUse" x="0" y="0" width="18" height="18"><path d="M0 1.90735e-06H18V18H0V1.90735e-06Z" fill="white"></path></mask><g mask="url(#mask0_1423_21346)"><path fill-rule="evenodd" clip-rule="evenodd" d="M0 7.73438C0 8.89934 0.944413 9.84375 2.10937 9.84375H6.32812C7.49309 9.84375 8.4375 8.89934 8.4375 7.73438V2.10937C8.4375 0.944413 7.49309 0 6.32812 0H2.10937C0.944413 0 0 0.944413 0 2.10937V7.73438ZM2.10937 8.4375C1.72106 8.4375 1.40625 8.12269 1.40625 7.73438V2.10937C1.40625 1.72106 1.72106 1.40625 2.10937 1.40625H6.32812C6.71644 1.40625 7.03125 1.72106 7.03125 2.10937V7.73438C7.03125 8.12269 6.71644 8.4375 6.32812 8.4375H2.10937Z" fill="#99A1B1"></path><path fill-rule="evenodd" clip-rule="evenodd" d="M9.5625 15.8906C9.5625 17.0556 10.5069 18 11.6719 18H15.8906C17.0556 18 18 17.0556 18 15.8906V10.2656C18 9.10066 17.0556 8.15625 15.8906 8.15625H11.6719C10.5069 8.15625 9.5625 9.10066 9.5625 10.2656V15.8906ZM11.6719 16.5938C11.2836 16.5938 10.9687 16.2789 10.9687 15.8906V10.2656C10.9687 9.87731 11.2836 9.5625 11.6719 9.5625H15.8906C16.2789 9.5625 16.5937 9.87731 16.5937 10.2656V15.8906C16.5937 16.2789 16.2789 16.5938 15.8906 16.5938H11.6719Z" fill="#99A1B1"></path><path fill-rule="evenodd" clip-rule="evenodd" d="M0 15.8906C0 17.0556 0.944413 18 2.10937 18H6.32812C7.49309 18 8.4375 17.0556 8.4375 15.8906V13.0781C8.4375 11.9132 7.49309 10.9688 6.32812 10.9688H2.10937C0.944413 10.9688 0 11.9132 0 13.0781V15.8906ZM2.10937 16.5938C1.72106 16.5938 1.40625 16.2789 1.40625 15.8906V13.0781C1.40625 12.6898 1.72106 12.375 2.10937 12.375H6.32812C6.71644 12.375 7.03125 12.6898 7.03125 13.0781V15.8906C7.03125 16.2789 6.71644 16.5938 6.32812 16.5938H2.10937Z" fill="#99A1B1"></path><path fill-rule="evenodd" clip-rule="evenodd" d="M9.5625 4.92188C9.5625 6.08684 10.5069 7.03125 11.6719 7.03125H15.8906C17.0556 7.03125 18 6.08684 18 4.92188V2.10938C18 0.944413 17.0556 4.76837e-07 15.8906 4.76837e-07H11.6719C10.5069 4.76837e-07 9.5625 0.944413 9.5625 2.10938V4.92188ZM11.6719 5.625C11.2836 5.625 10.9687 5.31019 10.9687 4.92188V2.10938C10.9687 1.72106 11.2836 1.40625 11.6719 1.40625H15.8906C16.2789 1.40625 16.5937 1.72106 16.5937 2.10938V4.92188C16.5937 5.31019 16.2789 5.625 15.8906 5.625H11.6719Z" fill="#99A1B1"></path></g></g><defs><clipPath id="clip0_1423_21346"><rect width="18" height="18" fill="white"></rect></clipPath></defs></svg>