<svg width="100%" height="100%" viewBox="0 0 209 299" fill="none" xmlns="http://www.w3.org/2000/svg"><path d="M208.318 2.71666C208.714 1.98891 208.444 1.07808 207.717 0.682279C206.989 0.286477 206.078 0.555582 205.682 1.28334L208.318 2.71666ZM147.5 65.0001L148.095 66.3768L147.5 65.0001ZM64 35.0001L62.5496 34.6173L64 35.0001ZM116 55.2393L114.529 54.9467L116 55.2393ZM54.4999 126.239L53.2937 125.348L54.4999 126.239ZM59.5 236L60.9782 236.255L60.9878 236.199L60.9932 236.142L59.5 236ZM0.519368 294.76C0.386659 295.577 0.941977 296.348 1.7597 296.481L15.0854 298.643C15.9031 298.776 16.6736 298.221 16.8063 297.403C16.939 296.585 16.3837 295.815 15.5659 295.682L3.72092 293.76L5.64325 281.915C5.77596 281.097 5.22064 280.326 4.40291 280.194C3.58518 280.061 2.8147 280.616 2.68199 281.434L0.519368 294.76ZM7.19463 293.17C7.87583 292.699 8.04588 291.765 7.57444 291.083C7.103 290.402 6.1686 290.232 5.4874 290.704L7.19463 293.17ZM14.3199 284.748C13.6294 285.206 13.4407 286.137 13.8985 286.827C14.3562 287.518 15.287 287.706 15.9775 287.249L14.3199 284.748ZM24.831 281.359C25.5176 280.896 25.6984 279.963 25.2348 279.277C24.7713 278.59 23.8389 278.409 23.1523 278.873L24.831 281.359ZM31.7877 272.805C31.1222 273.298 30.9827 274.238 31.476 274.903C31.9694 275.569 32.9088 275.708 33.5743 275.215L31.7877 272.805ZM41.9453 268.464C42.5637 267.913 42.6182 266.964 42.067 266.346C41.5158 265.728 40.5676 265.673 39.9492 266.224L41.9453 268.464ZM47.2177 258.797C46.6864 259.432 46.771 260.378 47.4067 260.91C48.0423 261.441 48.9883 261.356 49.5196 260.721L47.2177 258.797ZM55.6713 251.72C56.0654 250.991 55.7942 250.081 55.0656 249.687C54.3369 249.293 53.4267 249.564 53.0325 250.292L55.6713 251.72ZM56.8878 240.773C56.6633 241.571 57.1278 242.399 57.9252 242.624C58.7227 242.848 59.5511 242.384 59.7756 241.586L56.8878 240.773ZM61.2747 231.247C61.2913 230.419 60.6333 229.734 59.8051 229.717C58.9768 229.701 58.2919 230.359 58.2753 231.187L61.2747 231.247ZM57.7894 221.853C57.8894 222.676 58.6372 223.261 59.4596 223.161C60.2819 223.061 60.8675 222.313 60.7674 221.491L57.7894 221.853ZM59.01 211.916C58.8159 211.11 58.0056 210.615 57.2002 210.809C56.3949 211.003 55.8994 211.814 56.0936 212.619L59.01 211.916ZM53.4911 203.538C53.7475 204.326 54.594 204.757 55.3818 204.5C56.1695 204.244 56.6001 203.397 56.3436 202.609L53.4911 203.538ZM53.1702 193.528C52.8861 192.749 52.0249 192.349 51.2467 192.633C50.4686 192.917 50.0681 193.779 50.3523 194.557L53.1702 193.528ZM47.079 185.546C47.3541 186.327 48.2106 186.738 48.992 186.463C49.7734 186.188 50.1838 185.331 49.9087 184.55L47.079 185.546ZM47.0097 175.534C46.7854 174.737 45.957 174.272 45.1596 174.497C44.3621 174.721 43.8975 175.549 44.1218 176.347L47.0097 175.534ZM42.0177 166.832C42.1425 167.651 42.9076 168.214 43.7266 168.089C44.5455 167.965 45.1083 167.199 44.9834 166.38L42.0177 166.832ZM44.3681 157.116C44.39 156.288 43.7364 155.599 42.9082 155.577C42.0801 155.555 41.391 156.209 41.3691 157.037L44.3681 157.116ZM42.6299 147.261C42.4403 148.067 42.9402 148.875 43.7467 149.064C44.5531 149.254 45.3606 148.754 45.5502 147.948L42.6299 147.261ZM48.539 139.186C48.8776 138.43 48.5393 137.542 47.7833 137.204C47.0272 136.865 46.1398 137.203 45.8011 137.959L48.539 139.186ZM50.5126 129.358C50.0624 130.054 50.2612 130.982 50.9567 131.433C51.6521 131.883 52.5808 131.684 53.031 130.989L50.5126 129.358ZM58.5566 123.383C59.067 122.731 58.9518 121.788 58.2993 121.277C57.6468 120.767 56.7041 120.882 56.1937 121.535L58.5566 123.383ZM62.2853 114.156C61.7417 114.781 61.8078 115.728 62.4329 116.272C63.0581 116.815 64.0055 116.749 64.5491 116.124L62.2853 114.156ZM70.892 109.172C71.4641 108.572 71.4422 107.623 70.843 107.051C70.2438 106.479 69.2943 106.501 68.7222 107.1L70.892 109.172ZM75.4519 100.328C74.8573 100.905 74.8429 101.854 75.4197 102.449C75.9965 103.044 76.9461 103.058 77.5408 102.481L75.4519 100.328ZM84.4178 95.9989C85.0273 95.4379 85.0666 94.4889 84.5056 93.8794C83.9446 93.2699 82.9957 93.2305 82.3861 93.7916L84.4178 95.9989ZM89.4144 87.3998C88.8002 87.9557 88.753 88.9043 89.3089 89.5184C89.8649 90.1326 90.8134 90.1799 91.4276 89.6239L89.4144 87.3998ZM98.4362 83.1942C99.0397 82.6266 99.0688 81.6773 98.5013 81.0738C97.9338 80.4704 96.9845 80.4412 96.381 81.0088L98.4362 83.1942ZM103.049 74.3888C102.483 74.9936 102.514 75.9429 103.119 76.509C103.724 77.0751 104.673 77.0437 105.239 76.4389L103.049 74.3888ZM111.41 68.9708C111.886 68.2933 111.723 67.3576 111.046 66.881C110.368 66.4043 109.433 66.5672 108.956 67.2448L111.41 68.9708ZM113.288 59.2642C112.996 60.0394 113.388 60.9047 114.163 61.197C114.938 61.4892 115.803 61.0977 116.096 60.3226L113.288 59.2642ZM118.26 50.025C118.33 49.1995 117.717 48.4737 116.892 48.4037C116.066 48.3338 115.34 48.9463 115.27 49.7718L118.26 50.025ZM114.701 39.5474C114.878 40.3567 115.677 40.8692 116.487 40.6921C117.296 40.515 117.808 39.7154 117.631 38.9061L114.701 39.5474ZM113.146 28.5863C112.667 27.9103 111.731 27.7505 111.055 28.2293C110.379 28.7082 110.219 29.6444 110.698 30.3204L113.146 28.5863ZM103.303 23.5396C104.016 23.9629 104.936 23.7289 105.359 23.0168C105.783 22.3047 105.549 21.3843 104.837 20.9609L103.303 23.5396ZM94.291 17.1187C93.4746 16.9781 92.6987 17.5259 92.5581 18.3423C92.4175 19.1587 92.9653 19.9346 93.7817 20.0752L94.291 17.1187ZM83.608 20.0744C84.4242 19.9324 84.9707 19.1557 84.8288 18.3395C84.6868 17.5233 83.9101 16.9768 83.0939 17.1187L83.608 20.0744ZM72.5647 21.1024C71.8652 21.5463 71.6581 22.4732 72.102 23.1727C72.5459 23.8721 73.4727 24.0793 74.1722 23.6354L72.5647 21.1024ZM67.3125 30.7654C67.7183 30.0432 67.4619 29.1288 66.7397 28.7229C66.0176 28.317 65.1031 28.5734 64.6972 29.2956L67.3125 30.7654ZM61.5321 39.4287C61.4034 40.2471 61.9624 41.0149 62.7808 41.1436C63.5991 41.2723 64.3669 40.7133 64.4957 39.8949L61.5321 39.4287ZM64.1987 48.9646C64.1118 48.1407 63.3735 47.5433 62.5496 47.6302C61.7258 47.7171 61.1284 48.4554 61.2153 49.2793L64.1987 48.9646ZM63.8668 58.8674C64.2232 59.6153 65.1183 59.9327 65.8662 59.5763C66.6141 59.22 66.9315 58.3248 66.5751 57.577L63.8668 58.8674ZM71.8037 64.7805C71.2056 64.2073 70.256 64.2277 69.6829 64.8258C69.1098 65.424 69.1301 66.3735 69.7283 66.9467L71.8037 64.7805ZM77.8869 72.5915C78.6294 72.9587 79.5291 72.6545 79.8964 71.9119C80.2636 71.1693 79.9594 70.2696 79.2168 69.9024L77.8869 72.5915ZM87.8323 72.9488C87.0262 72.7577 86.2178 73.2563 86.0267 74.0624C85.8356 74.8684 86.3342 75.6768 87.1403 75.8679L87.8323 72.9488ZM96.7603 77.2765C97.587 77.331 98.3013 76.7051 98.3558 75.8784C98.4103 75.0518 97.7844 74.3375 96.9577 74.283L96.7603 77.2765ZM106.258 74.2764C105.431 74.3277 104.802 75.0395 104.854 75.8663C104.905 76.6932 105.617 77.3219 106.444 77.2707L106.258 74.2764ZM116.016 76.1707C116.834 76.0359 117.387 75.264 117.252 74.4466C117.118 73.6292 116.346 73.0759 115.528 73.2107L116.016 76.1707ZM124.695 71.2894C123.892 71.4921 123.405 72.3076 123.608 73.1109C123.811 73.9141 124.626 74.4009 125.429 74.1981L124.695 71.2894ZM134.647 71.5108C135.434 71.2515 135.861 70.4035 135.602 69.6167C135.343 68.8299 134.495 68.4023 133.708 68.6615L134.647 71.5108ZM142.549 65.4354C141.78 65.7427 141.405 66.6155 141.712 67.3849C142.02 68.1542 142.892 68.5287 143.662 68.2213L142.549 65.4354ZM153.23 64.0193C153.975 63.6566 154.284 62.7588 153.922 62.0139C153.559 61.2691 152.661 60.9594 151.916 61.322L153.23 64.0193ZM161.549 56.0507C160.843 56.4835 160.621 57.407 161.054 58.1134C161.487 58.8197 162.41 59.0414 163.117 58.6085L161.549 56.0507ZM172.428 52.2155C173.085 51.711 173.208 50.7693 172.704 50.1122C172.199 49.4551 171.258 49.3314 170.601 49.8359L172.428 52.2155ZM178.914 42.6935C178.317 43.2676 178.298 44.2171 178.872 44.8144C179.446 45.4117 180.395 45.4306 180.993 44.8566L178.914 42.6935ZM188.694 36.569C189.222 35.9312 189.134 34.9856 188.496 34.4569C187.858 33.9281 186.913 34.0165 186.384 34.6543L188.694 36.569ZM192.905 25.8351C192.449 26.5271 192.641 27.4573 193.333 27.9128C194.025 28.3683 194.955 28.1766 195.411 27.4846L192.905 25.8351ZM201.122 17.7645C201.507 17.0309 201.225 16.1242 200.491 15.7393C199.757 15.3544 198.851 15.637 198.466 16.3706L201.122 17.7645ZM203.247 6.39949C202.905 7.15433 203.241 8.04296 203.995 8.3843C204.75 8.72565 205.639 8.39044 205.98 7.63561L203.247 6.39949ZM2.87705 296.217C4.31485 295.181 5.7552 294.167 7.19463 293.17L5.4874 290.704C4.03478 291.709 2.57858 292.734 1.12295 293.783L2.87705 296.217ZM15.9775 287.249C18.9758 285.261 21.9449 283.308 24.831 281.359L23.1523 278.873C20.2802 280.812 17.3301 282.753 14.3199 284.748L15.9775 287.249ZM33.5743 275.215C36.5107 273.038 39.3184 270.805 41.9453 268.464L39.9492 266.224C37.4062 268.491 34.6722 270.667 31.7877 272.805L33.5743 275.215ZM49.5196 260.721C51.8521 257.93 53.9234 254.951 55.6713 251.72L53.0325 250.292C51.3904 253.328 49.4363 256.142 47.2177 258.797L49.5196 260.721ZM59.7756 241.586C60.258 239.873 60.6605 238.097 60.9782 236.255L58.0218 235.745C57.7214 237.487 57.3416 239.161 56.8878 240.773L59.7756 241.586ZM60.9932 236.142C61.1508 234.487 61.2424 232.856 61.2747 231.247L58.2753 231.187C58.2445 232.723 58.1571 234.279 58.0067 235.858L60.9932 236.142ZM60.7674 221.491C60.3687 218.214 59.7602 215.028 59.01 211.916L56.0936 212.619C56.821 215.636 57.4067 218.708 57.7894 221.853L60.7674 221.491ZM56.3436 202.609C55.3406 199.529 54.2574 196.505 53.1702 193.528L50.3523 194.557C51.4363 197.525 52.5049 200.509 53.4911 203.538L56.3436 202.609ZM49.9087 184.55C48.8435 181.524 47.8522 178.529 47.0097 175.534L44.1218 176.347C44.9883 179.427 46.0025 182.489 47.079 185.546L49.9087 184.55ZM44.9834 166.38C44.5168 163.318 44.2855 160.239 44.3681 157.116L41.3691 157.037C41.2812 160.361 41.528 163.62 42.0177 166.832L44.9834 166.38ZM45.5502 147.948C46.2209 145.096 47.1972 142.181 48.539 139.186L45.8011 137.959C44.3837 141.124 43.3453 144.219 42.6299 147.261L45.5502 147.948ZM53.031 130.989C53.853 129.719 54.7434 128.433 55.7061 127.131L53.2937 125.348C52.2955 126.698 51.3697 128.034 50.5126 129.358L53.031 130.989ZM55.7061 127.131C56.6506 125.853 57.6012 124.604 58.5566 123.383L56.1937 121.535C55.2219 122.777 54.2547 124.047 53.2937 125.348L55.7061 127.131ZM64.5491 116.124C66.6601 113.697 68.7794 111.384 70.892 109.172L68.7222 107.1C66.5807 109.343 64.4298 111.69 62.2853 114.156L64.5491 116.124ZM77.5408 102.481C79.8682 100.224 82.1672 98.0703 84.4178 95.9989L82.3861 93.7916C80.1226 95.8748 77.8035 98.0468 75.4519 100.328L77.5408 102.481ZM91.4276 89.6239C93.8667 87.4162 96.2165 85.2817 98.4362 83.1942L96.381 81.0088C94.1845 83.0744 91.854 85.1916 89.4144 87.3998L91.4276 89.6239ZM105.239 76.4389C107.551 73.9688 109.632 71.4983 111.41 68.9708L108.956 67.2448C107.28 69.6273 105.296 71.9884 103.049 74.3888L105.239 76.4389ZM116.096 60.3226C116.682 58.7682 117.144 57.1747 117.471 55.5319L114.529 54.9467C114.236 56.4209 113.819 57.8563 113.288 59.2642L116.096 60.3226ZM117.471 55.5319C117.85 53.6281 118.11 51.7925 118.26 50.025L115.27 49.7718C115.131 51.422 114.887 53.1467 114.529 54.9467L117.471 55.5319ZM117.631 38.9061C116.763 34.9393 115.209 31.4986 113.146 28.5863L110.698 30.3204C112.523 32.8971 113.917 35.9646 114.701 39.5474L117.631 38.9061ZM104.837 20.9609C101.582 19.0261 97.979 17.754 94.291 17.1187L93.7817 20.0752C97.1353 20.6528 100.387 21.8058 103.303 23.5396L104.837 20.9609ZM83.0939 17.1187C79.3266 17.774 75.7162 19.1024 72.5647 21.1024L74.1722 23.6354C76.9588 21.867 80.1904 20.6688 83.608 20.0744L83.0939 17.1187ZM64.6972 29.2956C63.7828 30.9226 63.0561 32.6981 62.5496 34.6173L65.4503 35.3828C65.8921 33.7087 66.5231 32.1699 67.3125 30.7654L64.6972 29.2956ZM62.5496 34.6173C62.1177 36.2538 61.7791 37.8584 61.5321 39.4287L64.4957 39.8949C64.726 38.4304 65.0431 36.9257 65.4503 35.3828L62.5496 34.6173ZM61.2153 49.2793C61.5796 52.7333 62.4734 55.943 63.8668 58.8674L66.5751 57.577C65.3361 54.9765 64.5294 52.099 64.1987 48.9646L61.2153 49.2793ZM69.7283 66.9467C72.044 69.1654 74.7793 71.0546 77.8869 72.5915L79.2168 69.9024C76.3585 68.4888 73.8802 66.77 71.8037 64.7805L69.7283 66.9467ZM87.1403 75.8679C90.1374 76.5783 93.3508 77.0516 96.7603 77.2765L96.9577 74.283C93.6997 74.0681 90.6528 73.6174 87.8323 72.9488L87.1403 75.8679ZM106.444 77.2707C109.515 77.0803 112.71 76.716 116.016 76.1707L115.528 73.2107C112.316 73.7405 109.222 74.0927 106.258 74.2764L106.444 77.2707ZM125.429 74.1981C128.427 73.4414 131.502 72.5472 134.647 71.5108L133.708 68.6615C130.628 69.6766 127.621 70.5507 124.695 71.2894L125.429 74.1981ZM143.662 68.2213C145.127 67.6361 146.605 67.0214 148.095 66.3768L146.905 63.6233C145.439 64.2568 143.987 64.8607 142.549 65.4354L143.662 68.2213ZM148.095 66.3768C149.859 65.614 151.57 64.8273 153.23 64.0193L151.916 61.322C150.298 62.1103 148.628 62.8782 146.905 63.6233L148.095 66.3768ZM163.117 58.6085C166.469 56.5539 169.566 54.4128 172.428 52.2155L170.601 49.8359C167.821 51.9699 164.812 54.0514 161.549 56.0507L163.117 58.6085ZM180.993 44.8566C183.852 42.1082 186.406 39.3279 188.694 36.569L186.384 34.6543C184.165 37.3307 181.688 40.0275 178.914 42.6935L180.993 44.8566ZM195.411 27.4846C197.659 24.069 199.535 20.7902 201.122 17.7645L198.466 16.3706C196.916 19.3248 195.09 22.5161 192.905 25.8351L195.411 27.4846ZM205.98 7.63561C206.915 5.5675 207.662 3.92175 208.318 2.71666L205.682 1.28334C204.962 2.60725 204.165 4.36925 203.247 6.39949L205.98 7.63561Z" fill="#6C52EE" opacity="1" pathLength="1" stroke-dashoffset="0px" stroke-dasharray="1px 1px"></path></svg>