<svg width="40" height="40" viewBox="0 0 40 40" fill="none" xmlns="http://www.w3.org/2000/svg"><path d="M30.9056 10.5192C32.9267 10.5192 34.5652 8.88075 34.5652 6.85961C34.5652 4.83847 32.9267 3.20001 30.9056 3.20001C28.8844 3.20001 27.246 4.83847 27.246 6.85961C27.246 8.88075 28.8844 10.5192 30.9056 10.5192Z" fill="white" fill-opacity="0.5"></path><path d="M20.0004 23.7948C22.0216 23.7948 23.66 22.1563 23.66 20.1352C23.66 18.114 22.0216 16.4756 20.0004 16.4756C17.9793 16.4756 16.3408 18.114 16.3408 20.1352C16.3408 22.1563 17.9793 23.7948 20.0004 23.7948Z" fill="white" fill-opacity="0.5"></path><path d="M32.3111 33.7448L28.9967 30.4304C30.3055 28.6104 31.0855 26.386 31.0855 23.9784C31.0855 17.866 26.1127 12.8924 19.9995 12.8924C13.8863 12.8924 8.91394 17.866 8.91394 23.9784C8.91394 30.0908 13.8867 35.0644 19.9999 35.0644C22.4075 35.0644 24.6319 34.2844 26.4515 32.9756L29.7659 36.29C30.4691 36.9932 31.6079 36.9932 32.3111 36.29C33.0143 35.5872 33.0143 34.448 32.3111 33.7448ZM10.7139 23.9784C10.7139 18.8584 14.8795 14.6924 19.9999 14.6924C25.1203 14.6924 29.2859 18.8584 29.2859 23.9784C29.2859 29.0984 25.1203 33.2644 19.9999 33.2644C14.8795 33.2644 10.7139 29.0984 10.7139 23.9784Z" fill="white" fill-opacity="0.5"></path><path d="M22.9948 24.6924C22.134 25.26 21.1068 25.5956 20.0004 25.5956C18.894 25.5956 17.8672 25.26 17.006 24.6924C15.6912 25.5512 14.7644 26.954 14.5552 28.5836C14.508 28.9516 14.7768 29.2852 15.148 29.2852H24.8564C25.2 29.2852 25.4928 28.9944 25.4536 28.6528C25.2624 26.9936 24.328 25.5632 22.9948 24.6924Z" fill="white" fill-opacity="0.5"></path><path d="M33.8992 11.416C33.0384 11.9836 32.0112 12.3192 30.9048 12.3192C29.7984 12.3192 28.7716 11.9836 27.9104 11.416C27.3348 11.792 26.84 12.2772 26.4404 12.8352C27.854 13.6556 29.0964 14.7328 30.1048 16.0088H35.7568C36.128 16.0088 36.3968 15.6756 36.3496 15.3072C36.1412 13.6776 35.214 12.2752 33.8992 11.416Z" fill="white" fill-opacity="0.5"></path><path d="M9.09441 10.5192C11.1156 10.5192 12.754 8.88075 12.754 6.85961C12.754 4.83847 11.1156 3.20001 9.09441 3.20001C7.07327 3.20001 5.43481 4.83847 5.43481 6.85961C5.43481 8.88075 7.07327 10.5192 9.09441 10.5192Z" fill="white" fill-opacity="0.5"></path><path d="M6.10043 11.416C6.96123 11.9836 7.98843 12.3192 9.09483 12.3192C10.2012 12.3192 11.228 11.9836 12.0892 11.416C12.6648 11.792 13.1596 12.2772 13.5592 12.8352C12.1456 13.6556 10.9032 14.7328 9.89483 16.0088H4.24283C3.87163 16.0088 3.60283 15.6756 3.65003 15.3072C3.85843 13.6776 4.78563 12.2752 6.10043 11.416Z" fill="white" fill-opacity="0.5"></path></svg>