<svg width="40" height="40" viewBox="0 0 40 40" fill="none" xmlns="http://www.w3.org/2000/svg"><g clip-path="url(#clip0_420_5025-third-btn)"><path d="M20.0001 0C17.5541 0 15.5642 1.98992 15.5642 4.43586C15.5642 6.47625 16.9492 8.19812 18.8282 8.71352V12.9877C19.2096 12.9242 19.6009 12.8906 20.0001 12.8906C20.3992 12.8906 20.7905 12.9242 21.1719 12.9877V8.71352C23.0509 8.19812 24.4359 6.47625 24.4359 4.43594C24.4359 1.98992 22.4461 0 20.0001 0Z" fill="white" fill-opacity="0.5"></path><path d="M12.8479 11.1906C13.8121 9.49756 13.5739 7.30061 12.1312 5.85788C10.4018 4.12827 7.58755 4.12827 5.85794 5.85788C4.12841 7.58749 4.12841 10.4016 5.85794 12.1312C6.72271 12.9959 7.85864 13.4283 8.99458 13.4283C9.75372 13.4283 10.5125 13.234 11.1907 12.8479L14.215 15.8722C14.6725 15.233 15.2331 14.6724 15.8723 14.215L12.8479 11.1906Z" fill="white" fill-opacity="0.5"></path><path d="M20 24.7656C22.632 24.7656 24.7656 22.632 24.7656 20C24.7656 17.368 22.632 15.2344 20 15.2344C17.368 15.2344 15.2344 17.368 15.2344 20C15.2344 22.632 17.368 24.7656 20 24.7656Z" fill="white" fill-opacity="0.5"></path><path d="M34.1421 5.85782C32.4125 4.12821 29.5982 4.12836 27.8688 5.85782C26.4261 7.30055 26.1879 9.4975 27.1521 11.1906L24.1277 14.215C24.767 14.6724 25.3275 15.233 25.785 15.8723L28.8093 12.8479C29.4875 13.2341 30.2461 13.4283 31.0054 13.4283C32.1412 13.4283 33.2774 12.9958 34.1421 12.1311C35.8716 10.4016 35.8716 7.58743 34.1421 5.85782Z" fill="white" fill-opacity="0.5"></path><path d="M15.8721 25.785C15.2329 25.3276 14.6722 24.767 14.2148 24.1277L11.1904 27.1521C9.49738 26.188 7.30051 26.4262 5.8577 27.8688C4.12816 29.5984 4.12816 32.4125 5.8577 34.1421C6.72246 35.0069 7.8584 35.4392 8.99434 35.4392C10.1303 35.4392 11.2662 35.0069 12.1309 34.1421C13.5736 32.6994 13.8118 30.5024 12.8476 28.8094L15.8721 25.785Z" fill="white" fill-opacity="0.5"></path><path d="M35.564 15.5645C33.5237 15.5645 31.8017 16.9495 31.2864 18.8284H27.0122C27.0757 19.2098 27.1093 19.6012 27.1093 20.0003C27.1093 20.3995 27.0757 20.7908 27.0122 21.1722H31.2864C31.8018 23.0512 33.5237 24.4362 35.564 24.4362C38.0099 24.4362 39.9999 22.4463 39.9999 20.0003C39.9999 17.5543 38.0099 15.5645 35.564 15.5645Z" fill="white" fill-opacity="0.5"></path><path d="M12.9877 18.8284H8.71352C8.19812 16.9495 6.47625 15.5645 4.43594 15.5645C1.98992 15.5645 0 17.5543 0 20.0003C0 22.4463 1.98992 24.4362 4.43586 24.4362C6.47625 24.4362 8.19812 23.0512 8.71352 21.1722H12.9877C12.9242 20.7908 12.8906 20.3995 12.8906 20.0003C12.8906 19.6012 12.9242 19.2098 12.9877 18.8284Z" fill="white" fill-opacity="0.5"></path><path d="M34.1421 27.8688C32.6993 26.4262 30.5024 26.188 28.8093 27.1521L25.785 24.1277C25.3275 24.767 24.7669 25.3276 24.1277 25.785L27.1521 28.8094C26.188 30.5024 26.4261 32.6994 27.8689 34.1421C28.7335 35.0069 29.8695 35.4392 31.0054 35.4392C32.1414 35.4392 33.2773 35.0069 34.1421 34.1421C35.8716 32.4125 35.8716 29.5984 34.1421 27.8688Z" fill="white" fill-opacity="0.5"></path><path d="M21.1717 31.2869V27.0127C20.7903 27.0762 20.399 27.1098 19.9998 27.1098C19.6007 27.1098 19.2094 27.0762 18.8279 27.0127V31.2869C16.949 31.8023 15.564 33.5242 15.564 35.5645C15.564 38.0105 17.5538 40.0004 19.9998 40.0004C22.4458 40.0004 24.4357 38.0105 24.4357 35.5646C24.4357 33.5242 23.0507 31.8023 21.1717 31.2869Z" fill="white" fill-opacity="0.5"></path></g><defs><clipPath id="clip0_420_5025-third-btn"><rect width="40" height="40" fill="white"></rect></clipPath></defs></svg>