<svg width="40" height="40" viewBox="0 0 40 40" fill="none" xmlns="http://www.w3.org/2000/svg"><g clip-path="url(#clip0_420_5018-second-btn)"><path d="M11.0355 4.0625H2.71445C1.21766 4.0625 0 5.28016 0 6.77695V15.098C0 16.5948 1.21766 17.8125 2.71445 17.8125H11.0355C12.5323 17.8125 13.75 16.5948 13.75 15.098V6.77695C13.75 5.28016 12.5323 4.0625 11.0355 4.0625Z" fill="white" fill-opacity="0.5"></path><path d="M11.0355 22.1875H2.71445C1.21766 22.1875 0 23.4052 0 24.902V33.223C0 34.7198 1.21766 35.9375 2.71445 35.9375H11.0355C12.5323 35.9375 13.75 34.7198 13.75 33.223V24.902C13.75 23.4052 12.5323 22.1875 11.0355 22.1875Z" fill="white" fill-opacity="0.5"></path><path d="M38.75 10.3125H18.75C18.0597 10.3125 17.5 9.75281 17.5 9.0625C17.5 8.37219 18.0597 7.8125 18.75 7.8125H38.75C39.4403 7.8125 40 8.37219 40 9.0625C40 9.75281 39.4403 10.3125 38.75 10.3125Z" fill="white" fill-opacity="0.5"></path><path d="M31.875 15H18.75C18.0597 15 17.5 14.4403 17.5 13.75C17.5 13.0597 18.0597 12.5 18.75 12.5H31.875C32.5653 12.5 33.125 13.0597 33.125 13.75C33.125 14.4403 32.5653 15 31.875 15Z" fill="white" fill-opacity="0.5"></path><path d="M38.75 28.125H18.75C18.0597 28.125 17.5 27.5653 17.5 26.875C17.5 26.1847 18.0597 25.625 18.75 25.625H38.75C39.4403 25.625 40 26.1847 40 26.875C40 27.5653 39.4403 28.125 38.75 28.125Z" fill="white" fill-opacity="0.5"></path><path d="M31.875 33.125H18.75C18.0597 33.125 17.5 32.5653 17.5 31.875C17.5 31.1847 18.0597 30.625 18.75 30.625H31.875C32.5653 30.625 33.125 31.1847 33.125 31.875C33.125 32.5653 32.5653 33.125 31.875 33.125Z" fill="white" fill-opacity="0.5"></path></g><defs><clipPath id="clip0_420_5018-second-btn"><rect width="40" height="40" fill="white"></rect></clipPath></defs></svg>