<svg width="69" height="20" viewBox="0 0 69 20" fill="none" xmlns="http://www.w3.org/2000/svg">
<path d="M32.9214 0.128174H27.3516H21.4079H21.2905L21.4079 11.86V14.7671H20.8218L10.603 0.128174H0.179443V19.7746H6.24051L6.09383 5.13559H6.73815L17.0153 19.7746H21.4075H27.3512V18.3955V13.0001V11.91H32.9211H34.7045H37.6953H41.3068V7.60979H37.6953H34.7045H32.9211H27.3516V7.04225V4.75267H32.9214H34.7049H37.6957H48.6272H57.2062C61.8033 4.75267 62.6816 5.04742 62.6816 10.0253C62.6816 11.1151 62.7106 13.324 61.8029 14.0898C61.1296 14.6495 59.812 14.679 58.9917 14.7085C58.2891 14.738 57.6154 14.7671 56.9128 14.7671H48.6265V6.22532H42.7704V19.7746H57.4104C59.9576 19.7746 64.6424 19.9808 66.663 18.1252C67.8633 17.006 68.3026 15.0914 68.4196 13.5007C68.5072 12.2343 68.5369 10.938 68.5369 9.67156C68.5369 7.75698 68.5952 5.69521 67.981 3.83965C66.8691 0.481579 63.7069 0.216705 60.6617 0.157684C59.5491 0.128174 58.4365 0.128174 57.3239 0.128174H48.6276H42.7715H41.3076H37.696H34.7052H32.9214Z" fill="#171717"/>
</svg>