<svg width="18" height="18" viewBox="0 0 18 18" fill="none" xmlns="http://www.w3.org/2000/svg"><mask id="mask0_1423_21366" style="mask-type:luminance" maskUnits="userSpaceOnUse" x="0" y="0" width="18" height="18"><path d="M0 0H18V18H0V0Z" fill="white"></path></mask><g mask="url(#mask0_1423_21366)"><path fill-rule="evenodd" clip-rule="evenodd" d="M9 1.5C4.85786 1.5 1.5 4.85786 1.5 9C1.5 13.1421 4.85786 16.5 9 16.5C13.1421 16.5 16.5 13.1421 16.5 9C16.5 4.85786 13.1422 1.5 9 1.5ZM0 9C4.5e-07 4.02944 4.02944 -4.5e-07 9 0C13.9705 4.5e-07 18 4.02944 18 9C18 13.9705 13.9705 18 9 18C4.02944 18 -4.5e-07 13.9705 0 9ZM9 6C8.17155 6 7.5 6.67157 7.5 7.5C7.5 7.8807 7.64085 8.22668 7.8744 8.4915C8.1363 8.78857 8.27992 9.2568 8.08807 9.71378L7.12829 12H10.8717L9.91193 9.71378C9.72008 9.2568 9.8637 8.78857 10.1256 8.4915C10.3591 8.22668 10.5 7.8807 10.5 7.5C10.5 6.67157 9.82845 6 9 6ZM6 7.5C6 5.84314 7.34314 4.5 9 4.5C10.6568 4.5 12 5.84314 12 7.5C12 8.1882 11.7675 8.8236 11.3775 9.32977L12.2548 11.4193C12.6698 12.4078 11.9438 13.5 10.8717 13.5H7.12829C6.05618 13.5 5.33022 12.4078 5.74522 11.4193L6.62249 9.32977C6.23253 8.8236 6 8.1882 6 7.5Z" fill="#99A1B1"></path></g></svg>