
<svg width="18" height="18" viewBox="0 0 18 18" fill="none" xmlns="http://www.w3.org/2000/svg"><path fill-rule="evenodd" clip-rule="evenodd" d="M6.00013 2.81873C6.00013 1.6762 6.92633 0.75 8.06889 0.75H9.93136C11.0739 0.75 12.0002 1.67621 12.0002 2.81873C12.0002 3.25652 12.4741 3.53017 12.8532 3.31126C13.8427 2.73999 15.1079 3.07899 15.6792 4.06847L16.6105 5.68144C17.1818 6.67091 16.8428 7.93612 15.8533 8.5074C15.4741 8.72633 15.4741 9.2736 15.8533 9.49253C16.8428 10.0638 17.1818 11.329 16.6105 12.3185L15.6792 13.9314C15.1079 14.9209 13.8428 15.2599 12.8533 14.6887C12.4741 14.4697 12.0002 14.7434 12.0002 15.1812C12.0002 16.3237 11.0739 17.25 9.93136 17.25H8.06889C6.92633 17.25 6.00013 16.3237 6.00013 15.1812C6.00013 14.7434 5.52616 14.4697 5.14702 14.6887C4.15756 15.2599 2.89234 14.9209 2.32107 13.9315L1.38981 12.3185C0.818542 11.329 1.15756 10.0638 2.14702 9.49253C2.52619 9.2736 2.52619 8.72633 2.14702 8.5074C1.15756 7.93612 0.818542 6.67091 1.38981 5.68144L2.32107 4.06845C2.89234 3.07898 4.15757 2.73998 5.14702 3.31125C5.52619 3.53016 6.00013 3.25652 6.00013 2.81873ZM8.06889 2.25C7.75479 2.25 7.50016 2.50463 7.50016 2.81873C7.50016 4.41124 5.77616 5.40653 4.39702 4.61029C4.125 4.45323 3.77716 4.54643 3.62011 4.81845L2.68885 6.43144C2.5318 6.70346 2.625 7.0513 2.89702 7.20836C4.27619 8.0046 4.27619 9.99525 2.89702 10.7915C2.625 10.9486 2.53179 11.2964 2.68885 11.5684L3.62011 13.1815C3.77716 13.4535 4.12499 13.5466 4.39702 13.3896C5.7762 12.5933 7.50016 13.5887 7.50016 15.1812C7.50016 15.4954 7.75479 15.75 8.06889 15.75H9.93136C10.2455 15.75 10.5002 15.4954 10.5002 15.1812C10.5002 13.5887 12.224 12.5933 13.6033 13.3896C13.8753 13.5466 14.2232 13.4534 14.3802 13.1814L15.3114 11.5684C15.4685 11.2964 15.3753 10.9486 15.1033 10.7915C13.7241 9.99525 13.7241 8.0046 15.1033 7.20836C15.3753 7.0513 15.4685 6.70346 15.3114 6.43144L14.3802 4.81847C14.2232 4.54645 13.8753 4.45323 13.6032 4.61029C12.2241 5.40654 10.5002 4.41127 10.5002 2.81873C10.5002 2.50463 10.2455 2.25 9.93136 2.25H8.06889ZM9.00016 6.75C7.75749 6.75 6.75013 7.75733 6.75013 9C6.75013 10.2427 7.75749 11.25 9.00016 11.25C10.2428 11.25 11.2502 10.2427 11.2502 9C11.2502 7.75733 10.2428 6.75 9.00016 6.75ZM5.25013 9C5.25013 6.92894 6.92906 5.25 9.00016 5.25C11.0712 5.25 12.7502 6.92894 12.7502 9C12.7502 11.071 11.0712 12.75 9.00016 12.75C6.92906 12.75 5.25013 11.071 5.25013 9Z" fill="#99A1B1"></path></svg>