<svg width="174" height="82" viewBox="0 0 174 82" fill="none" xmlns="http://www.w3.org/2000/svg"><rect x="0.5" y="50.5" width="173" height="31" rx="15.5" fill="#6C52EE" fill-opacity="0.1" stroke="#9580FF"></rect><mask id="mask0_1423_21109" style="mask-type:alpha" maskUnits="userSpaceOnUse" x="0" y="50" width="174" height="32"><rect y="50" width="174" height="32" rx="16" fill="#6C52EE" fill-opacity="0.3"></rect></mask><g mask="url(#mask0_1423_21109)"><mask id="mask1_1423_21109" style="mask-type:alpha" maskUnits="userSpaceOnUse" x="-20" y="-23" width="213" height="123"><path d="M193 -22.3716H-19.4001V99.0003H193V-22.3716Z" fill="white"></path></mask><g mask="url(#mask1_1423_21109)"><path d="M209.098 114.91H-35.4973V-38.2814H209.098V114.91ZM-35.1809 114.594H208.782V-37.965H-35.1809V114.594Z" fill="#6C52EE" fill-opacity="0.8"></path><path d="M208.94 76.3749H-35.3394V76.6913H208.94V76.3749Z" fill="#6C52EE" fill-opacity="0.8"></path><path d="M208.94 68.731H-35.3394V69.0473H208.94V68.731Z" fill="#6C52EE" fill-opacity="0.8"></path><path d="M208.94 61.0872H-35.3394V61.4035H208.94V61.0872Z" fill="#6C52EE" fill-opacity="0.8"></path><path d="M208.94 53.4437H-35.3394V53.7601H208.94V53.4437Z" fill="#6C52EE" fill-opacity="0.8"></path><path d="M172.086 -38.1238H171.77V114.752H172.086V-38.1238Z" fill="#6C52EE" fill-opacity="0.8"></path><path d="M164.684 -38.1238H164.367V114.752H164.684V-38.1238Z" fill="#6C52EE" fill-opacity="0.8"></path><path d="M157.281 -38.1238H156.965V114.752H157.281V-38.1238Z" fill="#6C52EE" fill-opacity="0.8"></path><path d="M149.879 -38.1238H149.562V114.752H149.879V-38.1238Z" fill="#6C52EE" fill-opacity="0.8"></path><path d="M142.477 -38.1238H142.16V114.752H142.477V-38.1238Z" fill="#6C52EE" fill-opacity="0.8"></path><path d="M135.074 -38.1238H134.758V114.752H135.074V-38.1238Z" fill="#6C52EE" fill-opacity="0.8"></path><path d="M127.672 -38.1238H127.355V114.752H127.672V-38.1238Z" fill="#6C52EE" fill-opacity="0.8"></path><path d="M120.269 -38.1238H119.953V114.752H120.269V-38.1238Z" fill="#6C52EE" fill-opacity="0.8"></path><path d="M112.867 -38.1238H112.551V114.752H112.867V-38.1238Z" fill="#6C52EE" fill-opacity="0.8"></path><path d="M105.465 -38.1238H105.149V114.752H105.465V-38.1238Z" fill="#6C52EE" fill-opacity="0.8"></path><path d="M98.0625 -38.1238H97.7461V114.752H98.0625V-38.1238Z" fill="#6C52EE" fill-opacity="0.8"></path><path d="M90.6599 -38.1238H90.3435V114.752H90.6599V-38.1238Z" fill="#6C52EE" fill-opacity="0.8"></path><path d="M83.2573 -38.1238H82.9409V114.752H83.2573V-38.1238Z" fill="#6C52EE" fill-opacity="0.8"></path><path d="M75.8547 -38.1238H75.5383V114.752H75.8547V-38.1238Z" fill="#6C52EE" fill-opacity="0.8"></path><path d="M68.4524 -38.1238H68.136V114.752H68.4524V-38.1238Z" fill="#6C52EE" fill-opacity="0.8"></path><path d="M61.0498 -38.1238H60.7334V114.752H61.0498V-38.1238Z" fill="#6C52EE" fill-opacity="0.8"></path><path d="M53.6479 -38.1238H53.3315V114.752H53.6479V-38.1238Z" fill="#6C52EE" fill-opacity="0.8"></path><path d="M46.2453 -38.1238H45.929V114.752H46.2453V-38.1238Z" fill="#6C52EE" fill-opacity="0.8"></path><path d="M38.843 -38.1238H38.5266V114.752H38.843V-38.1238Z" fill="#6C52EE" fill-opacity="0.8"></path><path d="M31.4404 -38.1238H31.124V114.752H31.4404V-38.1238Z" fill="#6C52EE" fill-opacity="0.8"></path><path d="M24.0386 -38.1238H23.7222V114.752H24.0386V-38.1238Z" fill="#6C52EE" fill-opacity="0.8"></path><path d="M16.636 -38.1238H16.3196V114.752H16.636V-38.1238Z" fill="#6C52EE" fill-opacity="0.8"></path><path d="M9.23361 -38.1238H8.91724V114.752H9.23361V-38.1238Z" fill="#6C52EE" fill-opacity="0.8"></path><path d="M1.83127 -38.1238H1.51489V114.752H1.83127V-38.1238Z" fill="#6C52EE" fill-opacity="0.8"></path></g></g><mask id="mask2_1423_21109" style="mask-type:alpha" maskUnits="userSpaceOnUse" x="0" y="0" width="174" height="82"><rect width="174" height="82" rx="41" fill="#6C52EE"></rect></mask><g mask="url(#mask2_1423_21109)"><path d="M110.204 9.88756C110.615 8.38487 111.251 7.12999 112.149 6.06071C113.046 4.99143 114.511 4.27541 115.852 4.66453C116.531 4.86172 117.111 5.31833 117.583 5.84559C118.344 6.6987 118.878 7.82387 118.763 8.96169C118.647 10.1122 117.884 11.1182 116.948 11.7962C116.011 12.4743 114.908 12.875 113.82 13.2673" fill="#FFDAC7"></path><path d="M110.508 9.97099C110.857 8.71084 111.401 7.50447 112.216 6.4742C112.953 5.54201 114.067 4.77959 115.306 4.88082C116.574 4.98417 117.613 6.13465 118.126 7.21975C118.697 8.42928 118.488 9.74321 117.622 10.7513C116.621 11.9176 115.143 12.4565 113.737 12.9627C113.358 13.0987 113.522 13.7082 113.905 13.5701C115.322 13.0586 116.807 12.5176 117.875 11.4072C118.889 10.3538 119.364 8.91752 118.906 7.49392C118.477 6.15995 117.379 4.82599 116.017 4.3852C114.666 3.94757 113.202 4.5613 112.229 5.51143C111.061 6.65241 110.331 8.25212 109.901 9.80332C109.792 10.1945 110.399 10.3612 110.508 9.97099Z" fill="#161670"></path><path d="M119.048 8.15502C118.92 7.52864 118.458 7.01825 117.902 6.72404C117.237 6.37183 116.465 6.35707 115.738 6.48678C114.287 6.74513 112.994 7.68049 112.293 8.97439C111.886 9.72626 111.662 10.5625 111.626 11.4167C111.609 11.8216 112.238 11.8216 112.255 11.4167C112.323 9.8064 113.177 8.29317 114.617 7.5318C115.316 7.16272 116.189 6.936 116.98 7.06992C117.649 7.18381 118.299 7.62566 118.441 8.32164C118.522 8.71814 119.13 8.55047 119.049 8.15397L119.048 8.15502Z" fill="#161670"></path><path d="M85.8028 3.86735C61.6607 7.85132 57.933 26.7156 57.392 32.8803C57.0767 36.4804 56.8415 40.9537 57.1168 45.7813C57.2739 48.5315 59.6096 51.3017 60.177 54.1858C60.6336 56.51 59.2353 58.9417 60.0515 61.2395C62.1057 67.0256 65.7227 71.2353 70.9795 75.7391C78.263 81.9798 107.775 82.5334 112.626 74.6076C113.982 72.3921 116.064 50.05 116.306 47.9325C116.306 47.9325 121.879 34.034 120.73 29.1073C116.965 12.9742 105.543 0.609943 85.8028 3.86735Z" fill="#FFDAC7"></path><path d="M79.5181 5.2552C81.4542 6.43732 86.5064 16.7442 87.4702 16.238C89.0741 15.3965 89.4885 4.62882 88.9571 3.43616" fill="#FFF9F8"></path><path d="M64.233 15.8729C63.5476 14.6571 62.8347 13.4096 61.7433 12.5396C60.6508 11.6696 59.0732 11.2584 57.8363 11.9058C57.2099 12.2338 56.613 12.7421 56.2556 13.3526C55.6787 14.3397 55.4995 15.603 55.8369 16.6955C56.1786 17.7995 57.1255 18.6337 58.1779 19.1135C59.2304 19.5922 60.3914 19.7652 61.5345 19.9339" fill="#FFDAC7"></path><path d="M64.4492 15.6201C63.7289 14.3431 62.9707 13.026 61.7823 12.1244C60.7151 11.3135 59.1998 10.8864 57.9133 11.4073C56.573 11.9504 55.6313 13.181 55.3761 14.593C55.1198 16.0145 55.5227 17.4265 56.6057 18.404C57.9227 19.5935 59.6996 19.8951 61.3953 20.144C61.7918 20.202 61.9626 19.5957 61.5629 19.5366C60.1984 19.3362 58.7664 19.1338 57.5864 18.3671C56.5234 17.6775 55.8928 16.605 55.9276 15.3249C55.9645 14.0004 56.6447 12.8225 57.7951 12.1634C58.8813 11.5423 60.1984 11.8207 61.2002 12.4798C62.4414 13.297 63.1943 14.6774 63.905 15.9375C64.1043 16.2908 64.6485 15.9734 64.4492 15.6201Z" fill="#161670"></path><path d="M55.9646 15.8437C55.9488 15.4904 56.05 15.1667 56.3 14.9104C56.5488 14.6542 56.9084 14.5298 57.2353 14.4074C58.0347 14.1101 58.9025 14.1617 59.7061 14.4233C61.0284 14.8535 62.4552 16.0367 62.6429 17.4866C62.6946 17.8831 63.3241 17.8884 63.2724 17.4866C63.09 16.0725 62.0924 14.9927 60.9029 14.2809C60.2407 13.8844 59.4878 13.6535 58.7201 13.5902C57.8786 13.5206 57.133 13.7357 56.378 14.0911C55.7094 14.4064 55.3024 15.1097 55.3351 15.8437C55.3541 16.2476 55.9836 16.2497 55.9646 15.8437Z" fill="#161670"></path><path opacity="0.27" d="M60.6116 14.483C61.1821 14.7224 62.6163 17.3513 60.445 19.6428L61.3034 19.9349L62.8525 17.5327C62.8525 17.5327 63.9323 15.9984 64.1654 15.7801C64.0515 15.6789 62.6669 13.0974 61.6429 12.3677C60.5494 11.5884 58.9212 11.388 57.6305 11.8562C57.2108 12.0091 55.3011 13.7175 55.6659 15.3836C55.7028 15.41 56.9946 12.9656 60.6116 14.4841V14.483Z" fill="#18184C"></path><path d="M79.554 5.56943C79.7121 5.66328 79.8967 5.86575 80.0559 6.0524C80.3069 6.34661 80.5347 6.6598 80.7572 6.97615C81.3804 7.85984 81.9572 8.77516 82.533 9.69049C83.7014 11.5507 84.8065 13.4709 86.1078 15.2446C86.3155 15.5272 86.5285 15.8109 86.769 16.0661C86.9145 16.2211 87.0906 16.4036 87.3026 16.4626C87.8551 16.6187 88.2189 15.7909 88.3729 15.406C88.7156 14.5476 88.8706 13.6091 89.0035 12.7001C89.1764 11.5232 89.2819 10.3359 89.3494 9.14846C89.4127 8.03805 89.4432 6.92554 89.4243 5.81407C89.4116 5.0854 89.4127 4.31982 89.2545 3.6038C89.2323 3.50362 89.2017 3.41083 89.1617 3.31697C89.0415 3.03858 88.6344 3.27901 88.7536 3.5553C88.7209 3.48042 88.7641 3.59009 88.7705 3.61435C88.7842 3.66602 88.7968 3.71664 88.8074 3.76936C88.8337 3.89696 88.8474 4.00241 88.8601 4.11103C88.9012 4.47694 88.9223 4.84392 88.936 5.21089C88.975 6.23799 88.9592 7.26615 88.9181 8.29325C88.8717 9.44689 88.7905 10.6016 88.6566 11.7489C88.5416 12.7338 88.3961 13.7293 88.1198 14.6836C88.026 15.0084 87.9184 15.3353 87.7507 15.6306C87.6811 15.7529 87.639 15.8141 87.5567 15.9016C87.5061 15.9564 87.504 15.9522 87.4776 15.9712C87.4586 15.9849 87.4344 15.9933 87.4154 16.0071C87.4112 16.0102 87.3996 16.0071 87.4006 16.0123C87.3943 15.9754 87.4734 16.0524 87.4291 16.006C87.4017 15.9775 87.4354 16.0102 87.4344 16.0092C87.4164 15.9986 87.3964 15.9902 87.3785 15.9786C87.3047 15.928 87.2741 15.9027 87.1781 15.8077C86.9672 15.5979 86.7816 15.3606 86.6034 15.1234C85.3348 13.4277 84.2698 11.5728 83.1467 9.78012C82.5783 8.87112 82.0068 7.96213 81.4015 7.07739C80.9976 6.48686 80.5853 5.8436 80.0517 5.35958C79.9715 5.28681 79.8861 5.21616 79.7923 5.16027C79.5297 5.00526 79.2924 5.41336 79.554 5.56837V5.56943Z" fill="#161670"></path><path d="M117.24 67.7598C117.177 67.8083 116.692 68.8386 116.659 68.9113C116.586 69.0769 116.628 69.2045 116.796 69.2699C116.965 69.3353 117.153 69.3152 117.333 69.3247C117.514 69.3342 117.714 69.388 117.805 69.544C117.906 69.717 117.834 69.9353 117.761 70.1209C117.669 70.356 117.56 70.6102 117.337 70.7304C117.216 70.7958 117.076 70.8126 116.939 70.8253C116.259 70.8854 115.571 70.8527 114.9 70.7304C114.691 70.6924 114.48 70.6439 114.293 70.5416C113.886 70.3191 113.645 69.8625 113.587 69.4027C113.529 68.9419 113.63 68.4758 113.767 68.0329C113.916 67.5542 114.2 67.0164 114.699 66.97C114.893 66.952 115.084 67.0164 115.268 67.0807C115.931 67.3116 116.59 67.5542 117.245 67.8073" fill="#FFDAC7"></path><path d="M117.224 67.3884C116.941 67.613 116.726 67.9547 116.57 68.2752C116.392 68.6412 116.188 69.1653 116.3 69.5786C116.42 70.0236 116.885 69.78 117.128 69.6219C117.188 69.5828 117.248 69.5449 117.309 69.5069C117.304 69.5101 117.414 69.45 117.361 69.4753C117.426 69.4437 117.307 69.4626 117.376 69.4742C117.632 69.5154 117.555 69.663 117.473 69.8697C117.407 70.0395 117.329 70.2461 117.143 70.3094C116.89 70.3959 116.564 70.3706 116.301 70.3706C115.748 70.3706 115.109 70.3558 114.587 70.1555C113.616 69.7832 113.856 68.3786 114.2 67.6489C114.284 67.4706 114.396 67.2713 114.574 67.1712C114.799 67.0446 115.054 67.1648 115.278 67.2429C115.915 67.4654 116.548 67.6995 117.177 67.9431C117.556 68.0896 117.719 67.4801 117.345 67.3357C116.715 67.0931 116.083 66.858 115.446 66.6355C115.162 66.5363 114.88 66.4499 114.578 66.5058C114.333 66.55 114.111 66.6987 113.948 66.8843C113.592 67.2903 113.421 67.8619 113.329 68.3828C113.227 68.967 113.253 69.5955 113.588 70.1059C113.936 70.6395 114.473 70.8156 115.077 70.9063C115.72 71.0022 116.378 71.036 117.025 70.9653C117.313 70.9337 117.57 70.8504 117.767 70.6258C117.95 70.4149 118.081 70.1133 118.149 69.8433C118.218 69.5734 118.192 69.277 117.979 69.0725C117.802 68.9027 117.487 68.8036 117.246 68.8542C117.059 68.8942 116.896 69.024 116.738 69.1252C116.705 69.1473 116.67 69.1674 116.636 69.1885C116.616 69.2001 116.596 69.2117 116.576 69.2211C116.703 69.1621 116.815 69.2296 116.915 69.4268C116.93 69.3825 116.913 69.2971 116.918 69.2496C116.924 69.1769 116.938 69.1062 116.956 69.0345C117.062 68.5979 117.313 68.1171 117.672 67.8323C117.806 67.7258 117.781 67.4991 117.672 67.3873C117.542 67.2545 117.358 67.2819 117.227 67.3873L117.224 67.3884Z" fill="#161670"></path><path d="M116.182 50.7679C120.241 52.9118 123.329 55.3709 123.022 59.0765C122.705 62.9128 119.456 66.5151 117.673 67.6339L115.238 66.6089C116.42 62.8011 116.664 57.7373 116.664 57.7373" fill="#5A44E0"></path><path d="M114.139 50.1197C115.967 50.8895 117.773 51.7932 119.364 52.9901C120.479 53.8284 121.504 54.8534 122.134 56.1104C123.595 59.0219 122.168 62.2593 120.279 64.593C119.442 65.6274 118.488 66.5776 117.451 67.4127C117.553 67.3853 117.656 67.359 117.758 67.3315C116.958 67.1301 116.064 66.7642 115.529 66.1146L115.61 66.4215C115.993 65.1951 116.502 63.995 116.792 62.7412C117.021 61.751 117.002 60.7745 116.565 59.8434C116.265 59.2012 115.807 58.6381 115.327 58.1203C115.051 57.823 114.606 58.269 114.882 58.5653C115.654 59.3963 116.331 60.3664 116.321 61.5433C116.31 62.7201 115.829 63.7968 115.465 64.8555C115.34 65.2215 115.216 65.5874 115.097 65.9554C115.042 66.1294 114.943 66.3192 115.035 66.4964C115.106 66.6313 115.262 66.76 115.376 66.8591C115.831 67.2525 116.38 67.5182 116.94 67.7291C117.243 67.843 117.646 68.0592 117.932 67.8303C118.217 67.6026 118.492 67.3621 118.761 67.1154C120.491 65.5336 122.058 63.6196 122.875 61.3988C123.332 60.1545 123.5 58.811 123.262 57.5013C123.083 56.5217 122.653 55.5979 122.069 54.7954C120.472 52.5978 117.965 51.17 115.546 50.0554C115.136 49.8666 114.723 49.6873 114.309 49.5133C114.15 49.4469 113.964 49.585 113.922 49.7337C113.87 49.9151 113.986 50.0554 114.142 50.1207L114.139 50.1197Z" fill="#161670"></path><path d="M85.9717 3.53417C81.4784 4.28077 77.0611 5.64426 73.0739 7.87457C69.9272 9.63456 67.0832 11.9334 64.7517 14.6868C62.7987 16.994 61.2074 19.5924 60.0074 22.3647C59.0436 24.5929 58.317 26.9213 57.8425 29.3024C57.2888 32.0821 57.1243 34.9304 57.0083 37.7565C56.9472 39.2497 56.9208 40.7439 56.9366 42.2392C56.9451 43.0533 56.9662 43.8685 57.001 44.6815C57.0305 45.369 57.0463 46.0587 57.1887 46.7346C57.7433 49.3498 59.5487 51.5106 60.1012 54.1279C60.4165 55.619 60.2795 57.1554 60.368 58.6665C60.4134 59.4279 60.5114 60.1924 60.7308 60.9242C60.9185 61.5485 61.1663 62.1601 61.4099 62.7644C62.3294 65.0463 63.4757 67.2313 64.8856 69.2486C66.3725 71.3766 68.1219 73.3096 70.0306 75.0664C71.1779 76.123 72.3199 77.051 73.7235 77.7385C76.577 79.1347 79.7648 79.8434 82.8883 80.3189C86.6361 80.8905 90.444 81.0951 94.2318 80.9717C97.8003 80.8557 101.41 80.4708 104.86 79.5228C107.372 78.8321 110.154 77.8081 111.916 75.7877C112.809 74.7627 113.175 73.5162 113.471 72.2118C113.993 69.9161 114.315 67.574 114.695 65.2509C114.932 63.7989 115.178 62.3468 115.448 60.9C115.718 59.4532 116.104 57.8936 116.381 56.3824C116.52 55.6242 116.477 54.8323 116.436 54.0667C116.379 53.0153 116.276 51.9672 116.178 50.919C116.086 49.9246 115.99 48.9291 115.946 47.9315C115.93 47.5456 115.92 47.1575 115.939 46.7715C115.942 46.7104 115.978 46.5765 115.957 46.5227C115.927 46.4478 115.917 46.6123 115.924 46.5997C115.937 46.5807 115.944 46.5575 115.956 46.5385C116.409 45.794 116.748 44.9462 117.116 44.1584C118.627 40.9253 120.042 37.5783 120.897 34.1047C121.262 32.622 121.574 31.0276 121.371 29.4964C121.245 28.5505 120.948 27.6099 120.686 26.6946C120.396 25.6801 120.073 24.6752 119.712 23.6839C118.34 19.913 116.446 16.3223 113.924 13.1904C111.497 10.1776 108.474 7.64047 105.012 5.89735C101.27 4.01503 97.1138 3.09971 92.9326 3.00797C90.6011 2.95629 88.2716 3.15876 85.9717 3.53522C85.5731 3.60061 85.7419 4.20801 86.1394 4.14263C90.5969 3.4129 95.2093 3.39919 99.6014 4.53702C103.354 5.50928 106.856 7.322 109.805 9.84125C112.753 12.3605 115.089 15.4608 116.894 18.8584C117.835 20.63 118.629 22.4765 119.291 24.3704C119.635 25.3543 119.944 26.3508 120.22 27.3568C120.445 28.1741 120.719 29.0177 120.784 29.8666C120.904 31.4431 120.541 33.0491 120.134 34.5613C119.65 36.3561 119.016 38.1097 118.323 39.8339C117.725 41.3239 117.075 42.7939 116.387 44.2449C116.067 44.9219 115.674 45.5842 115.389 46.2759C115.306 46.4752 115.313 46.7114 115.306 46.9255C115.294 47.3273 115.308 47.7301 115.328 48.1308C115.379 49.1263 115.477 50.1196 115.569 51.1119C115.663 52.1253 115.761 53.1387 115.813 54.1542C115.849 54.8702 115.9 55.6253 115.752 56.3329C115.132 59.3045 114.548 62.2709 114.059 65.2678C113.688 67.5434 113.37 69.837 112.857 72.0863C112.575 73.3191 112.244 74.5001 111.377 75.4523C110.573 76.335 109.549 76.9888 108.487 77.5192C105.676 78.9206 102.476 79.5597 99.3821 79.9488C95.686 80.4138 91.9361 80.4856 88.22 80.2567C84.7316 80.0416 81.2264 79.5692 77.8593 78.6117C76.4906 78.2226 75.1366 77.7512 73.8638 77.109C72.4159 76.3772 71.2538 75.3616 70.0759 74.2502C66.4189 70.7966 63.5748 66.6851 61.7758 61.9798C61.5333 61.3439 61.2928 60.7081 61.1621 60.0384C61.0134 59.2813 60.9807 58.5083 60.967 57.7385C60.9406 56.2865 60.9733 54.8207 60.5726 53.4097C59.8671 50.9263 58.1114 48.7772 57.7296 46.1979C57.6178 45.4471 57.6273 44.6646 57.6031 43.9075C57.5788 43.1472 57.5662 42.3869 57.5641 41.6265C57.5598 40.1703 57.5936 38.714 57.6621 37.2587C57.7444 35.4776 57.8467 33.6892 58.0586 31.9186C58.2906 29.9836 58.7251 27.98 59.3072 26.0819C60.1002 23.4962 61.2043 21.0075 62.6215 18.7024C64.3119 15.9532 66.4494 13.4962 68.9413 11.4462C72.0194 8.91538 75.609 7.05415 79.3799 5.79506C81.5839 5.059 83.8501 4.52436 86.1415 4.14368C86.5401 4.07725 86.3714 3.46984 85.9739 3.53628L85.9717 3.53417Z" fill="#161670"></path><path d="M114.086 72.4078C112.668 75.1158 109.102 78.9849 107.683 81.6929C107.282 82.4606 106.922 84.3756 106.325 85.003C105.728 85.6304 105.049 85.5239 104.183 85.5018C103.078 85.4744 101.74 82.8845 99.8936 78.6379" fill="#FFDAC7"></path><path d="M113.815 72.2487C113.024 73.7061 111.956 75.0168 110.974 76.3455C109.847 77.8714 108.707 79.4152 107.835 81.1056C107.478 81.7995 107.218 82.5334 106.921 83.2537C106.656 83.8938 106.345 84.8312 105.636 85.1043C105.258 85.2499 104.828 85.2087 104.431 85.194C104.337 85.1908 104.241 85.1929 104.147 85.1845C104.176 85.1876 104.147 85.1887 104.093 85.1718C103.985 85.1391 104.009 85.1518 103.908 85.0949C103.542 84.8871 103.231 84.4727 102.977 84.1015C102.488 83.3865 102.086 82.6104 101.702 81.8353C101.157 80.7323 100.657 79.6061 100.167 78.4778C100.005 78.1066 99.4622 78.4271 99.6225 78.7952C100.413 80.6132 101.192 82.4891 102.265 84.1648C102.566 84.634 102.899 85.1149 103.34 85.4629C103.828 85.8488 104.363 85.8436 104.968 85.8351C105.393 85.8299 105.828 85.7613 106.19 85.523C106.525 85.3015 106.763 84.9905 106.959 84.6446C107.383 83.8969 107.663 83.0723 107.984 82.2772C108.685 80.5404 109.833 78.9734 110.928 77.4675C111.574 76.5786 112.238 75.7023 112.882 74.8122C113.407 74.0867 113.932 73.3528 114.359 72.5651C114.552 72.2086 114.009 71.8902 113.815 72.2477V72.2487Z" fill="#161670"></path><path d="M62.865 73.088C62.865 73.088 62.9462 75.5461 63.2383 75.7391C63.6179 75.9901 73.9111 77.6931 87.7917 77.6973C96.6212 77.7005 105.729 77.9399 114.99 74.3545C115.204 74.2712 114.946 73.59 114.671 72.3383" fill="white"></path><path d="M62.5497 73.088C62.5666 73.5783 62.5971 74.0687 62.6478 74.5569C62.6805 74.8775 62.7142 75.2055 62.7943 75.5176C62.8428 75.7064 62.9146 75.9173 63.0938 76.0185C63.2415 76.1018 63.4323 76.1303 63.5947 76.1661C63.9121 76.2357 64.2316 76.2927 64.5522 76.3475C67.371 76.8315 70.2266 77.1289 73.0748 77.3767C77.778 77.7869 82.5001 77.9936 87.2212 78.0105C92.1933 78.0284 97.1864 78.0927 102.141 77.6013C104.688 77.3493 107.223 76.9496 109.711 76.3391C110.992 76.0248 112.261 75.6547 113.509 75.2265C113.836 75.1148 114.162 74.9988 114.486 74.8786C114.715 74.7942 115.061 74.732 115.242 74.5569C115.46 74.346 115.376 73.9854 115.322 73.726C115.221 73.2325 115.083 72.7453 114.974 72.2528C114.887 71.8574 114.279 72.025 114.367 72.4205C114.476 72.9129 114.613 73.3991 114.715 73.8936C114.726 73.9485 114.764 74.2016 114.753 74.1984C114.676 74.1762 115.019 74.0065 114.709 74.1246C114.547 74.1857 114.384 74.248 114.22 74.3081C113.003 74.7552 111.766 75.1464 110.514 75.4828C108.1 76.1324 105.632 76.5784 103.149 76.8642C98.3611 77.4157 93.5357 77.3904 88.7239 77.383C84.025 77.3757 79.3324 77.2375 74.6461 76.8758C71.607 76.6417 68.5668 76.3412 65.554 75.8751C64.8876 75.7717 64.2116 75.6758 63.5568 75.5102C63.4924 75.4944 63.4302 75.4733 63.3669 75.4554C63.3944 75.4628 63.4123 75.4786 63.4408 75.4997C63.4777 75.526 63.4418 75.4765 63.4492 75.5092C63.4376 75.4554 63.4133 75.4027 63.3996 75.3489C63.2478 74.7605 63.2299 74.1277 63.1972 73.5235C63.1898 73.378 63.1824 73.2314 63.1771 73.0859C63.1634 72.682 62.5339 72.6799 62.5476 73.0859L62.5497 73.088Z" fill="#161670"></path><path d="M59.2091 53.3463C57.9363 56.0596 59.2408 63.8746 59.4074 64.2848C60.0949 66.5362 62.4497 72.0883 62.8651 73.2493C62.8651 73.2493 65.8104 73.9042 67.1591 74.0602C74.236 74.8806 82.9896 75.5313 92.2556 75.3067C101.237 75.0894 109.254 75.0536 114.672 72.1273C115.887 69.9887 116.438 63.3126 116.677 61.2784C117.753 55.1 116.183 50.767 116.183 50.767C113.577 51.948 114.576 51.3375 111.807 52.0609C107.181 53.2704 97.697 51.6032 97.697 51.6032C90.463 55.7074 86.75 53.0679 85.6955 53.07L59.2091 53.3463Z" fill="#5A44E0"></path><path d="M106.779 20.9897C115.681 19.7011 124.163 22.9859 125.505 31.6171C127.836 46.6208 116.885 55.851 98.3876 51.6603C98.3876 51.6603 93.9787 53.3771 91.0703 53.8675C88.0175 54.3821 86.5675 53.1641 86.5675 53.1641C62.1691 62.1349 53.0159 51.2986 52.9157 40.1756C52.8567 33.6734 56.7299 28.4567 62.9695 26.6366C64.2581 26.2612 65.5857 26.0292 66.9229 25.9122C67.5798 25.8552 68.2969 25.8679 68.9497 25.8594C77.7749 25.7434 85.7872 27.3052 86.7257 27.4929C90.4323 28.2363 92.9357 26.0176 92.9357 26.0176C102.338 21.1753 106.781 20.9897 106.781 20.9897H106.779Z" fill="#FFF9F8"></path><path d="M106.863 21.2933C111.9 20.5741 117.647 21.2627 121.442 24.9673C123.285 26.7652 124.428 29.1189 124.926 31.6297C125.388 33.9507 125.531 36.374 125.182 38.7203C124.576 42.7971 122.434 46.452 119.038 48.8205C115.13 51.5475 110.226 52.4216 105.539 52.3078C104.117 52.273 102.696 52.1517 101.288 51.9503C100.524 51.8417 99.7614 51.7109 99.0042 51.5601C98.632 51.4863 98.2629 51.3998 97.8907 51.3249C97.703 51.287 97.6323 51.2785 97.472 51.3808C97.4541 51.3924 97.4024 51.4346 97.4741 51.3798C95.3756 52.97 92.693 53.822 90.063 53.5922C89.0042 53.4994 87.9202 53.2463 86.9511 52.7992C86.8783 52.7654 86.8077 52.7232 86.7328 52.6927C86.4576 52.5809 86.2098 52.7486 85.9451 52.8466C85.0994 53.1598 84.2473 53.4582 83.3889 53.7377C80.3256 54.7363 77.1725 55.5219 73.9668 55.8857C69.503 56.3919 64.7271 56.1093 60.7062 53.9275C57.6935 52.2919 55.3714 49.6346 54.1334 46.4394C52.7267 42.8108 52.4979 38.4936 53.855 34.8228C54.6565 32.6568 56.0801 30.7481 57.9234 29.3572C59.8879 27.8756 62.23 26.9814 64.6364 26.5311C65.9451 26.2854 67.2748 26.1778 68.6056 26.1652C69.0106 26.161 69.0116 25.5314 68.6056 25.5356C63.7643 25.581 58.6257 27.0246 55.4242 30.8747C52.5822 34.2903 51.8968 38.9112 52.6033 43.1999C53.1401 46.4552 54.5932 49.5628 56.9384 51.906C59.677 54.6435 63.3752 56.0766 67.1715 56.5438C72.8564 57.2429 78.6889 55.9785 84.0586 54.1795C84.9243 53.8895 85.7837 53.5806 86.6368 53.2579L86.3943 53.2262C87.5121 53.8379 88.8608 54.1247 90.1168 54.228C92.3808 54.4147 94.629 53.8199 96.5947 52.7053C97.0534 52.4448 97.5058 52.1601 97.916 51.828C97.8137 51.8554 97.7114 51.8817 97.6091 51.9092C102.415 52.9911 107.488 53.3918 112.335 52.331C116.102 51.5063 119.73 49.7094 122.268 46.7494C124.751 43.8526 125.938 40.1281 125.997 36.3423C126.066 31.886 124.914 27.1997 121.476 24.1416C117.994 21.0444 113.116 20.1407 108.587 20.4771C107.953 20.5246 107.322 20.5973 106.693 20.687C106.293 20.7439 106.463 21.3513 106.86 21.2944L106.863 21.2933Z" fill="#161670"></path><g opacity="0.27"><path d="M74.1107 13.2791C73.6267 13.6514 73.0182 14.1902 72.7989 14.7671C72.7314 14.9463 72.8178 15.2595 72.9507 15.3966C73.0804 15.5305 73.2955 15.5031 73.4727 15.4546C74.5979 15.152 75.5617 14.4328 76.4886 13.7189C76.7554 13.5132 77.0306 13.296 77.1793 12.9913C77.3175 12.7086 77.3249 12.3448 77.1414 12.0886C76.9568 11.8323 76.4992 11.4411 74.1107 13.2791Z" fill="#18184C"></path></g><path d="M73.8451 12.7751C73.4032 13.1431 72.8517 13.6714 72.6682 14.2166C72.6113 14.3853 72.7062 14.6721 72.837 14.7934C72.9646 14.9115 73.167 14.8757 73.3326 14.8229C74.3818 14.4887 75.2624 13.7769 76.107 13.0714C76.3506 12.8679 76.6005 12.6538 76.7292 12.3638C76.8484 12.0949 76.8399 11.7575 76.6554 11.5286C76.4708 11.2998 76.0227 10.9581 73.844 12.7761L73.8451 12.7751Z" fill="#FFF9F8"></path><path d="M73.6773 12.6085C73.265 12.9544 72.8516 13.3414 72.589 13.818C72.4741 14.0258 72.3876 14.2367 72.4298 14.4771C72.472 14.7175 72.5933 14.9506 72.8126 15.0539C73.0414 15.1625 73.3029 15.0845 73.5286 15.0054C73.8112 14.9052 74.0854 14.7808 74.348 14.6374C74.8605 14.3569 75.3297 14.0057 75.7842 13.6409C76.1934 13.3129 76.7069 12.9734 76.9337 12.4819C77.1055 12.1097 77.0855 11.6362 76.7955 11.3273C76.5783 11.0953 76.2651 11.0742 75.9698 11.1469C75.6566 11.225 75.3603 11.3895 75.0882 11.5582C74.5905 11.8661 74.1286 12.2331 73.6784 12.6074C73.4443 12.8015 73.7796 13.1347 74.0126 12.9417C74.5705 12.4788 75.1684 11.9758 75.8422 11.689C75.9129 11.6584 75.9867 11.632 76.0616 11.612C76.0943 11.6025 76.128 11.5951 76.1607 11.5877C76.2229 11.5751 76.1523 11.5814 76.2324 11.5793C76.2598 11.5793 76.2872 11.5793 76.3147 11.5793C76.3379 11.5793 76.2693 11.5708 76.3368 11.5835C76.3558 11.5867 76.3737 11.594 76.3916 11.6004C76.3558 11.5888 76.3653 11.5867 76.4022 11.6088C76.4676 11.6489 76.3958 11.5761 76.4412 11.6404C76.4844 11.7006 76.5224 11.7438 76.5466 11.8208C76.6869 12.2573 76.2841 12.6117 75.9888 12.8616C75.277 13.4637 74.5336 14.0711 73.671 14.4444C73.5255 14.5077 73.1416 14.7165 72.9898 14.611C72.8031 14.4813 72.9159 14.2008 72.9961 14.0553C73.2407 13.6145 73.6288 13.2623 74.0105 12.9417C74.2436 12.7456 73.9082 12.4134 73.6762 12.6074L73.6773 12.6085Z" fill="#161670"></path><g opacity="0.27"><path d="M97.9432 11.7871C98.5232 11.726 99.3036 11.7006 99.8572 11.9653C100.029 12.0476 100.197 12.3312 100.208 12.519C100.22 12.7024 100.06 12.829 99.911 12.9144C98.964 13.4585 97.8241 13.5967 96.7126 13.7127C96.3931 13.7464 96.0588 13.777 95.7446 13.6589C95.4525 13.5503 95.1888 13.294 95.1256 12.9861C95.0623 12.6771 95.0813 12.0866 97.9443 11.7871H97.9432Z" fill="#18184C"></path></g><path d="M97.7577 11.1184C98.3261 11.035 99.0885 10.9749 99.6168 11.2017C99.7803 11.2723 99.9311 11.5338 99.9342 11.712C99.9374 11.886 99.7761 12.0126 99.6263 12.1012C98.6783 12.6611 97.5605 12.8425 96.4712 13.0028C96.158 13.0492 95.8311 13.0924 95.5295 12.9954C95.2501 12.9047 95.0033 12.6738 94.9559 12.3838C94.9074 12.0938 94.9527 11.5317 97.7588 11.1184H97.7577Z" fill="#FFF9F8"></path><path d="M97.7937 11.3566C98.2302 11.2944 98.6942 11.2501 99.1319 11.326C99.3037 11.3556 99.5062 11.3872 99.6043 11.5454C99.7466 11.7753 99.5547 11.867 99.366 11.9714C98.5308 12.4322 97.5712 12.6052 96.639 12.7465C96.2193 12.8097 95.6298 12.9605 95.2955 12.6073C95.2344 12.543 95.2017 12.4786 95.17 12.3974C95.1257 12.2846 95.1574 12.3415 95.1584 12.3531C95.1563 12.3194 95.1553 12.2878 95.1574 12.254C95.1521 12.3352 95.1795 12.2013 95.169 12.2203C95.1626 12.2308 95.228 12.1349 95.2133 12.1528C95.3018 12.0516 95.3978 11.9946 95.5317 11.925C96.214 11.5739 97.0471 11.4695 97.7947 11.3577C98.0942 11.3134 97.9666 10.8578 97.6692 10.9021C96.8551 11.0234 95.9324 11.1436 95.2059 11.5654C94.9306 11.7257 94.6797 11.9693 94.6839 12.3089C94.6871 12.6263 94.8821 12.9163 95.1394 13.0903C95.6214 13.4161 96.2309 13.2853 96.7655 13.2041C97.3687 13.1124 97.9729 13.0069 98.555 12.8235C98.8218 12.7391 99.0833 12.6389 99.3364 12.5187C99.5758 12.4059 99.8521 12.2814 100.018 12.0663C100.352 11.6319 99.9586 11.0772 99.5168 10.9348C98.9273 10.7439 98.2703 10.8167 97.6692 10.9021C97.3698 10.9454 97.4973 11.3999 97.7947 11.3577L97.7937 11.3566Z" fill="#161670"></path><path d="M58.2905 60.8198C59.055 64.1067 60.1401 67.3262 61.376 70.4644C61.7135 71.3228 62.0477 72.1938 62.4611 73.0195C62.5666 73.2304 62.6562 73.3496 62.8914 73.4266C63.0337 73.473 63.1761 73.5183 63.3184 73.5658C63.871 73.7503 64.4215 73.9264 64.993 74.0466C66.1087 74.2807 67.2518 74.3978 68.3854 74.5075C70.8256 74.7458 73.2741 74.9029 75.7206 75.0569C78.7903 75.2498 81.8611 75.4386 84.9329 75.5725C88.8441 75.7434 92.7532 75.7834 96.6665 75.6801C100.434 75.581 104.219 75.3827 107.92 74.6203C109.775 74.2386 111.6 73.7124 113.363 73.0195C113.822 72.8382 114.28 72.6483 114.73 72.4448C114.866 72.3837 114.95 72.3162 115.029 72.1886C115.19 71.9292 115.283 71.6107 115.377 71.3218C115.762 70.1386 116.031 68.9143 116.277 67.6963C116.638 65.9121 116.915 64.1099 117.116 62.3003C117.226 61.2975 117.312 60.2925 117.368 59.2855C117.39 58.8805 116.76 58.8816 116.738 59.2855C116.543 62.7791 116.041 66.2885 115.185 69.683C114.995 70.437 114.764 71.2501 114.471 71.8923C114.469 71.8975 114.476 71.8627 114.515 71.8543C114.294 71.9049 114.064 72.0547 113.853 72.1443C113.406 72.333 112.954 72.5102 112.498 72.6768C111.614 73.0006 110.715 73.2832 109.806 73.5278C106.243 74.4864 102.558 74.8259 98.8821 74.9778C94.9804 75.1381 91.0755 75.156 87.1716 75.0294C84.1779 74.9314 81.1873 74.7553 78.1977 74.5792C75.3832 74.4126 72.5687 74.2417 69.7594 74.0034C68.938 73.9338 68.1175 73.8579 67.2982 73.764C66.7382 73.6997 66.3059 73.6459 65.7438 73.55C65.1153 73.4435 64.4995 73.2948 63.8931 73.0955C63.6306 73.009 63.3701 72.9194 63.1065 72.836C63.0738 72.8255 63.0316 72.8044 62.9979 72.8023C62.9314 72.797 63.1065 72.8983 63.1065 72.8951C63.0875 72.8223 63.02 72.7369 62.9863 72.6694C62.827 72.3457 62.6847 72.0125 62.5434 71.6792C61.3739 68.9217 60.3795 66.0745 59.557 63.1956C59.3165 62.3541 59.0951 61.5074 58.8968 60.6553C58.8051 60.2609 58.1977 60.4275 58.2894 60.823L58.2905 60.8198Z" fill="#161670"></path><path d="M93.2478 65.0219L91.9107 65.0304L90.4839 65.0388H90.4555L90.5008 67.7974L90.505 68.4808H90.3648L87.8898 65.0536L85.3875 65.0683L85.4159 69.6882L86.8712 69.6798L86.8153 66.2378H86.9703L89.4589 69.6639L90.5135 69.6576L91.9402 69.6492L91.9381 69.3244L91.9307 68.0558V67.7995L93.2668 67.7911L93.6949 67.789L94.4131 67.7848L95.2799 67.7795L95.2736 66.7682L94.4067 66.7735L93.6886 66.7777L93.2605 66.7798L91.9234 66.7883V66.6543L91.9191 66.1155L93.2563 66.107L93.6844 66.1049L94.4025 66.1007L97.0272 66.0849L99.0867 66.0722C100.191 66.0659 100.402 66.1334 100.409 67.3039C100.41 67.5602 100.421 68.0801 100.203 68.2614C100.042 68.3943 99.7257 68.4027 99.5296 68.4112C99.3609 68.4196 99.1995 68.427 99.0308 68.428L97.0409 68.4396L97.0283 66.4308L95.6226 66.4392L95.6416 69.6249L99.1574 69.6038C99.769 69.5996 100.894 69.6418 101.377 69.2021C101.664 68.9374 101.766 68.486 101.793 68.1117C101.812 67.8133 101.817 67.5085 101.816 67.2111C101.813 66.7608 101.824 66.2758 101.674 65.8403C101.402 65.0525 100.643 64.9945 99.9113 64.985C99.6445 64.9798 99.3767 64.9808 99.1099 64.9829L97.022 64.9956L95.6163 65.004L95.2651 65.0061L94.3983 65.0114L93.6802 65.0156L93.252 65.0177L93.2478 65.0219Z" fill="white"></path><path d="M111.735 72.8393C109.156 71.5654 107.83 68.7741 107.964 65.9649C108.013 64.9388 108.231 63.9307 108.467 62.9331C108.559 62.5387 107.952 62.3711 107.859 62.7655C107.443 64.5318 107.136 66.3203 107.5 68.1245C107.783 69.5302 108.437 70.8663 109.423 71.9134C109.992 72.5177 110.673 73.0143 111.417 73.3824C111.779 73.5616 112.098 73.0186 111.735 72.8382V72.8393Z" fill="#161670"></path><path d="M77.7327 25.0304C79.3779 25.0304 80.7117 23.6967 80.7117 22.0514C80.7117 20.4061 79.3779 19.0724 77.7327 19.0724C76.0874 19.0724 74.7537 20.4061 74.7537 22.0514C74.7537 23.6967 76.0874 25.0304 77.7327 25.0304Z" fill="white"></path><path d="M80.021 21.6695C79.8333 21.176 79.4568 20.616 78.9612 20.3893C78.3306 20.1004 77.6293 20.2079 77.0125 20.4652C76.1309 20.8333 75.4707 21.524 75.399 22.5089C75.3769 23.1363 75.6331 23.7448 75.9864 24.2541C76.3196 24.736 76.8026 25.0693 77.39 25.1494C78.6248 25.3171 79.769 24.4851 80.0948 23.3103C80.2435 22.7746 80.2182 22.1883 80.021 21.6695Z" fill="#161670"></path><path d="M78.4665 22.3362C78.4033 22.1601 78.2767 21.9597 78.1122 21.8775C77.9024 21.7731 77.6714 21.8089 77.4679 21.8986C77.1779 22.0272 76.9607 22.2708 76.9407 22.6209C76.9354 22.8445 77.0219 23.0606 77.14 23.2431C77.2517 23.415 77.412 23.5352 77.6061 23.5658C78.0152 23.629 78.3906 23.3369 78.495 22.9193C78.5425 22.7295 78.533 22.5207 78.4655 22.3362H78.4665Z" fill="white"></path><path d="M76.2204 21.4989C76.1961 21.4356 76.1487 21.3639 76.0854 21.3354C76.0053 21.2985 75.9156 21.3122 75.8365 21.3449C75.7237 21.3924 75.6393 21.4799 75.6299 21.6064C75.6267 21.6866 75.6594 21.7646 75.7047 21.8289C75.7469 21.8901 75.8091 21.9333 75.884 21.9428C76.0422 21.9639 76.1877 21.8574 76.2299 21.7077C76.2489 21.6391 76.2457 21.5642 76.2204 21.4978V21.4989Z" fill="white"></path><path d="M80.4701 22.2286C80.3879 23.3749 79.5928 24.3756 78.4813 24.6899C77.3899 24.9988 76.1846 24.5876 75.516 23.6691C74.8316 22.7274 74.8221 21.4335 75.4844 20.4781C76.1287 19.548 77.3245 19.1125 78.417 19.3951C79.694 19.7252 80.5313 20.9252 80.4691 22.2286C80.4543 22.5323 80.9267 22.5313 80.9415 22.2286C81.0048 20.8925 80.2329 19.6261 78.998 19.0967C77.7621 18.5673 76.2795 18.8774 75.3684 19.8707C74.4541 20.8662 74.2601 22.3615 74.8917 23.5573C75.5202 24.7479 76.8658 25.4196 78.1934 25.2298C79.7077 25.0136 80.8329 23.7355 80.9415 22.2276C80.9637 21.9239 80.4912 21.926 80.4691 22.2276L80.4701 22.2286Z" fill="#161670"></path><g opacity="0.35"><path d="M78.5594 19.1685C79.2955 19.7516 79.7468 20.6722 79.6857 21.6814C79.5876 23.3233 78.1766 24.575 76.5348 24.4769C76.3281 24.4642 76.1277 24.4316 75.9358 24.3799C76.3977 24.7458 76.9713 24.9799 77.6051 25.0179C79.247 25.1159 80.6579 23.8642 80.756 22.2223C80.8414 20.7871 79.8955 19.528 78.5594 19.1685Z" fill="#131338"></path></g><path opacity="0.27" d="M117.287 6.81793C117.69 8.18142 116.449 10.5857 113.96 11.9102C112.026 12.9394 109.963 9.56284 109.963 9.56284C111.895 11.9661 113.151 18.1508 109.183 20.7007C108.722 20.997 120.911 22.0789 120.897 35.6274C120.885 48.1572 113.038 52.1633 101.44 52.6431C101.44 52.6652 111.623 54.2808 118.447 49.3098C122.493 46.3613 122.812 46.2675 124.153 43.1809C124.171 43.1398 124.231 43.1978 124.26 43.2125C125.289 41.1836 125.855 38.928 125.918 36.5986C126.039 32.0937 124.693 27.2745 121.254 24.1901C120.609 23.6122 119.918 23.1102 119.189 22.6779C118.991 22.1675 118.782 21.6613 118.563 21.1583C117.329 18.3354 115.761 15.6453 113.829 13.2421C115.193 12.7485 116.604 12.2055 117.657 11.172C118.644 10.2029 119.162 8.86264 118.758 7.50021C118.373 6.20104 117.267 4.83649 115.921 4.46741C114.747 4.14578 113.456 4.60344 112.501 5.32579C115.168 4.19007 117.048 6.01122 117.287 6.81688V6.81793Z" fill="#18184C"></path><path opacity="0.35" d="M109.608 53.8527C105.131 54.8144 99.5467 54.2882 99.5467 54.2882C99.5467 54.2882 93.9387 60.1661 84.1285 55.5737C77.2014 59.2856 62.1956 59.0124 58.876 53.4878C67.3564 57.7639 75.0491 56.625 80.4493 55.0664C81.9035 54.6467 86.555 52.9521 86.555 52.9521C86.555 52.9521 88.2506 54.0657 91.8265 53.9096C95.0228 53.7704 97.8478 51.5169 97.8478 51.5169C97.8478 51.5169 101.667 52.4396 106.438 52.4892C108.962 52.5156 113.203 52.0642 116.521 50.7661C116.521 50.7661 113.946 52.9184 109.606 53.8516L109.608 53.8527Z" fill="#161670"></path><path d="M91.5188 55.7466C91.4735 57.7059 90.7153 59.5376 89.7652 61.2248C89.6154 61.4905 90.0235 61.7289 90.1732 61.4631C91.1645 59.7021 91.9438 57.7902 91.9912 55.7466C91.9986 55.4429 91.5262 55.4429 91.5188 55.7466Z" fill="#161670"></path><path d="M91.9216 54.6975C91.5093 54.6099 91.0094 54.8124 90.7743 55.1614C90.5634 55.4736 90.5581 55.8616 90.7933 56.1632C91.0411 56.4806 91.4892 56.5323 91.852 56.4153C92.2749 56.2792 92.6555 55.8922 92.6039 55.4198C92.5786 55.2363 92.5142 55.0792 92.3856 54.9421C92.2622 54.8103 92.0956 54.7333 91.9216 54.6964V54.6975Z" fill="#161670"></path><path d="M94.6298 54.7205C94.382 54.4031 93.9338 54.3514 93.571 54.4685C93.1482 54.6045 92.7675 54.9915 92.8192 55.464C92.8445 55.6474 92.9088 55.8046 93.0375 55.9417C93.1608 56.0735 93.3274 56.1505 93.5014 56.1874C93.9138 56.2749 94.4136 56.0724 94.6488 55.7234C94.8597 55.4112 94.8649 55.0232 94.6298 54.7216V54.7205Z" fill="#161670"></path><path d="M93.6616 55.3565C93.8271 57.32 93.3568 59.2034 92.5839 61.0034C92.4647 61.2797 92.8717 61.5212 92.992 61.2417C93.7976 59.3668 94.3069 57.4054 94.134 55.3565C94.1087 55.0559 93.6363 55.0528 93.6616 55.3565Z" fill="#161670"></path><path d="M82.0364 54.7829C82.804 55.4483 83.8681 55.83 84.8034 56.1822C86.2386 56.7211 87.735 57.1302 89.2524 57.3496C90.0328 57.4624 90.8205 57.531 91.6082 57.5078C92.4761 57.4814 93.3482 57.3348 94.196 57.1534C95.6903 56.8339 97.1518 56.3067 98.4563 55.5021C99.6626 54.7576 100.698 53.7885 101.618 52.715C101.88 52.4092 101.436 51.961 101.173 52.27C100.4 53.1726 99.5487 54.011 98.5638 54.6827C97.3944 55.4799 96.0868 56.0283 94.7201 56.3836C93.1499 56.7917 91.5597 56.9794 89.9431 56.8086C88.4478 56.6504 86.9694 56.274 85.549 55.7847C84.8888 55.5569 84.2361 55.3028 83.6065 54.9991C83.3745 54.8873 83.1447 54.7692 82.9222 54.6384C82.7587 54.5425 82.5742 54.4201 82.4814 54.3389C82.1766 54.0742 81.7284 54.5182 82.0364 54.7839V54.7829Z" fill="#161670"></path><path opacity="0.21" d="M106.79 71.7785C105.592 70.0902 105.174 67.9643 105.234 65.9248C105.252 65.3195 106.195 65.3248 106.177 65.9333C106.121 67.824 106.498 69.7454 107.609 71.3103C107.756 71.518 107.639 71.8354 107.434 71.9535C107.194 72.0906 106.938 71.9873 106.79 71.7785Z" fill="white"></path><path opacity="0.21" d="M118.836 54.5563C120.827 55.885 121.503 58.5582 120.396 60.6777C120.114 61.2166 120.929 61.6943 121.212 61.1544C121.889 59.8573 122.074 58.3251 121.665 56.9131C121.288 55.6108 120.437 54.4898 119.313 53.739C118.805 53.4005 118.332 54.2188 118.836 54.5552V54.5563Z" fill="white"></path><path opacity="0.35" d="M70.5635 61.9429C80.8471 62.3984 83.9105 75.0716 83.9105 75.0716C83.9105 75.0716 83.2472 76.3856 84.0708 77.7385C83.6395 77.7754 83.1165 77.5097 82.6852 77.5466C81.7656 74.7679 81.1234 72.0873 79.3508 69.7579C77.9093 67.865 73.6595 64.4252 71.0707 63.2716L70.5635 61.9429Z" fill="#161670"></path><path d="M93.3708 37.1134L90.9539 37.416L91.1595 40.335L92.4797 40.7926L93.567 40.0323L93.3708 37.1134Z" fill="#FFF9F8"></path><path d="M86.8488 27.086C87.1494 26.8245 87.5417 26.6505 87.9023 26.4923C88.5129 26.2255 89.1582 26.0357 89.8131 25.9113C90.6293 25.7563 91.4729 25.713 92.2996 25.7942C92.5696 25.8206 93.0294 25.8649 93.0041 26.2656C92.9714 26.7886 92.0086 27.8305 91.6205 28.3082C91.3748 28.6108 90.972 29.0949 90.566 29.1971C90.565 29.1971 90.5639 29.1971 90.5618 29.1971C90.5396 29.2045 90.5164 29.2098 90.489 29.2151C90.1031 29.2783 89.6876 29.117 89.3343 28.9799C88.863 28.7975 88.4085 28.5665 87.9687 28.3177C87.6091 28.1131 87.2306 27.9022 86.9216 27.6238C86.7297 27.4509 86.6242 27.2769 86.8467 27.0839L86.8488 27.086Z" fill="#161670"></path><path d="M89.6569 28.1732C89.8499 28.2808 89.9574 28.6003 90.0418 28.7869C90.2453 29.2383 90.4088 29.7075 90.5585 30.1789C91.0014 31.5624 91.3262 32.9871 91.5529 34.4212C91.6995 35.3482 91.8007 36.2814 91.8397 37.2189C91.844 37.3233 92.4556 37.2252 92.4482 37.0554C92.3786 35.422 92.1287 33.7959 91.7617 32.2036C91.4896 31.0204 91.1722 29.8183 90.685 28.7026C90.588 28.4801 90.4583 28.0931 90.2295 27.9644C90.1219 27.9043 89.9448 27.9602 89.8372 27.9992C89.8087 28.0098 89.563 28.1194 89.6558 28.1722L89.6569 28.1732Z" fill="#161670"></path><path d="M93.1347 37.0553C93.2001 38.0286 93.2655 39.0009 93.3309 39.9742L93.4479 39.7707C93.0852 40.0237 92.7224 40.2779 92.3607 40.531C92.4219 40.5225 92.482 40.5152 92.5431 40.5067C92.1034 40.3538 91.6637 40.202 91.2229 40.0491C91.2809 40.125 91.3389 40.2009 91.3958 40.2768C91.3304 39.352 91.2651 38.4272 91.1997 37.5024C91.1786 37.2008 90.7062 37.1987 90.7272 37.5024C90.7926 38.4272 90.858 39.352 90.9234 40.2768C90.9308 40.3876 90.9919 40.4688 91.0963 40.5046C91.5002 40.6449 91.9041 40.7851 92.309 40.9254C92.4588 40.977 92.5632 40.9633 92.6939 40.8726C92.8974 40.7303 93.101 40.5879 93.3034 40.4466C93.4342 40.3549 93.6862 40.2389 93.7706 40.0944C93.8286 39.9953 93.7938 39.8466 93.7864 39.738C93.7537 39.2455 93.72 38.7531 93.6873 38.2616C93.6599 37.8599 93.6335 37.4581 93.6061 37.0563C93.586 36.7547 93.1136 36.7526 93.1337 37.0563L93.1347 37.0553Z" fill="#161670"></path><path d="M91.9864 37.1714C92.0612 38.2091 92.1361 39.2478 92.211 40.2854C92.2215 40.4352 92.2321 40.5839 92.2437 40.7336C92.2658 41.0352 92.7382 41.0373 92.7161 40.7336C92.6412 39.696 92.5663 38.6573 92.4915 37.6196C92.4809 37.4699 92.4704 37.3212 92.4588 37.1714C92.4366 36.8699 91.9642 36.8677 91.9864 37.1714Z" fill="#161670"></path><path opacity="0.27" d="M92.7888 26.2782C92.9195 26.4712 91.5539 28.3904 90.7852 29.0379C90.7852 29.0379 90.6365 29.5072 90.6333 29.5082C89.7982 29.9026 86.6114 28.2481 86.8107 27.5099C87.0838 26.4997 92.2214 25.441 92.7888 26.2782Z" fill="#18184C"></path><path opacity="0.27" d="M92.3512 38.3871C94.5646 38.0233 95.7889 35.7941 95.7341 35.7298C95.7341 35.7298 94.0458 36.9435 92.1456 37.2662C86.563 38.2131 83.0757 34.0436 83.0757 34.0436C82.7498 34.3979 86.061 39.4216 92.3523 38.3871H92.3512Z" fill="#18184C"></path><path d="M95.3683 35.4443C94.3591 36.3976 92.9049 36.871 91.5509 37.0345C89.7382 37.2538 87.8706 36.9322 86.2435 36.1023C85.1247 35.5318 84.1429 34.7472 83.2972 33.8214C83.023 33.5219 82.5791 33.968 82.8522 34.2664C84.3517 35.9083 86.3089 37.1125 88.5044 37.5417C90.2433 37.8813 92.1056 37.7748 93.7633 37.1284C94.512 36.8363 95.227 36.4429 95.8143 35.8882C96.1096 35.6088 95.6635 35.1648 95.3693 35.4432L95.3683 35.4443Z" fill="#161670"></path><path d="M98.1411 21.6469C99.7864 21.6469 101.12 20.3131 101.12 18.6679C101.12 17.0226 99.7864 15.6888 98.1411 15.6888C96.4959 15.6888 95.1621 17.0226 95.1621 18.6679C95.1621 20.3131 96.4959 21.6469 98.1411 21.6469Z" fill="white"></path><path d="M100.305 17.8315C100.021 17.3865 99.5396 16.914 99.0091 16.7917C98.3332 16.6356 97.6678 16.8834 97.1163 17.2599C96.3265 17.7977 95.8192 18.6086 95.9479 19.5872C96.0523 20.2062 96.4266 20.7504 96.8748 21.1785C97.2987 21.5834 97.8397 21.8123 98.4302 21.7722C99.6735 21.6868 100.626 20.6418 100.709 19.4248C100.747 18.8712 100.604 18.3018 100.305 17.8325V17.8315Z" fill="#161670"></path><path d="M98.97 18.7699C98.872 18.6106 98.7085 18.4398 98.5314 18.3924C98.3057 18.3323 98.0864 18.4145 97.905 18.5432C97.6466 18.7277 97.4842 19.0093 97.5338 19.3562C97.5728 19.5755 97.7015 19.7706 97.8544 19.9256C97.9988 20.0722 98.1802 20.1566 98.3763 20.1471C98.7897 20.126 99.0987 19.7643 99.1166 19.3351C99.1251 19.14 99.0734 18.9375 98.97 18.7688V18.7699Z" fill="white"></path><path d="M96.6964 17.9561C96.6605 17.8992 96.5983 17.8391 96.5308 17.8232C96.4443 17.8032 96.36 17.8348 96.2893 17.8834C96.1881 17.9519 96.1238 18.0552 96.1396 18.1807C96.1533 18.2598 96.2008 18.3294 96.2577 18.3843C96.3115 18.4359 96.3811 18.4654 96.4559 18.4602C96.6152 18.4496 96.7365 18.3157 96.747 18.1607C96.7523 18.09 96.7333 18.0173 96.6953 17.9572L96.6964 17.9561Z" fill="white"></path><path d="M100.852 18.2406C101.002 19.3774 100.483 20.5026 99.4697 21.0667C98.4626 21.6277 97.1656 21.4822 96.3093 20.7093C95.453 19.9363 95.1609 18.6772 95.607 17.609C96.0531 16.5418 97.1477 15.8669 98.2992 15.927C99.6163 15.9956 100.659 17.0227 100.861 18.3028C100.908 18.6023 101.363 18.4747 101.316 18.1774C101.111 16.8687 100.093 15.7773 98.7864 15.5168C97.4682 15.2532 96.0974 15.8448 95.395 16.9931C94.6917 18.1415 94.8014 19.6442 95.6429 20.6892C96.4791 21.729 97.9375 22.1487 99.1976 21.7026C100.623 21.1975 101.523 19.7412 101.325 18.2406C101.286 17.9432 100.812 17.9401 100.852 18.2406Z" fill="#161670"></path><g opacity="0.35"><path d="M98.3679 15.6771C99.2073 16.1 99.8337 16.9109 99.9781 17.9106C100.213 19.5388 99.0839 21.0499 97.4557 21.2851C97.2511 21.3146 97.0487 21.322 96.8494 21.3104C97.3756 21.5761 97.9851 21.69 98.6125 21.5993C100.241 21.3641 101.37 19.853 101.135 18.2248C100.929 16.8012 99.7482 15.7594 98.3668 15.6771H98.3679Z" fill="#131338"></path></g><path d="M73.407 77.166C75.8577 78.2585 78.2335 81.6741 78.8272 82.8087C79.229 83.5764 79.5886 85.4914 80.1854 86.1189C80.7823 86.7463 81.4614 86.6398 82.3272 86.6177C83.4323 86.5902 84.7705 84.0003 86.6169 79.7538" fill="#FFDAC7"></path><path d="M73.2489 77.4379C74.7568 78.2657 76.0191 79.529 77.0483 80.8946C77.4606 81.4429 77.8466 82.0155 78.1713 82.6208C78.4824 83.2008 78.6954 83.8251 78.9433 84.4336C79.2058 85.0789 79.4695 85.8023 79.9482 86.3232C80.5398 86.9676 81.3539 86.9633 82.1627 86.937C82.6109 86.9222 82.943 86.7862 83.2826 86.4899C83.6696 86.1514 83.9733 85.7106 84.2485 85.2814C85.321 83.6058 86.0992 81.7298 86.8912 79.9118C87.0514 79.5437 86.5084 79.2232 86.347 79.5944C85.6373 81.2257 84.9255 82.8739 84.0355 84.4177C83.7613 84.8923 83.4703 85.3721 83.1023 85.7802C82.9768 85.9194 82.8249 86.0691 82.6984 86.1535C82.5476 86.2536 82.5128 86.2768 82.3451 86.3043C82.4443 86.2874 82.2302 86.3043 82.2449 86.3043C82.1511 86.3074 82.0572 86.3106 81.9623 86.3138C81.7514 86.3211 81.5395 86.3285 81.3296 86.3138C80.9648 86.2874 80.6421 86.1514 80.3932 85.8782C79.9472 85.3889 79.7088 84.6645 79.4673 84.0603C79.2332 83.4771 79.0234 82.8813 78.7271 82.3256C78.4308 81.7698 78.0501 81.192 77.6578 80.6636C76.5527 79.1757 75.2039 77.7922 73.5673 76.8937C73.2119 76.6987 72.8935 77.2428 73.2499 77.4379H73.2489Z" fill="#161670"></path><path opacity="0.3" d="M84.7758 88.6203C84.7631 88.5792 84.7505 88.537 84.7347 88.4969C84.7146 88.4474 84.7083 88.4104 84.7072 88.4136C84.7051 88.3134 84.7041 88.2143 84.7009 88.1141C84.6756 87.3169 84.6566 86.4617 84.3308 85.7183C84.2063 85.4346 84.2411 85.4167 84.044 85.1773C84.0144 85.1414 85.7354 81.9283 85.8683 81.4432L86.618 79.4534C86.211 79.4513 83.0696 83.9572 81.6903 84.7787C81.2611 85.0349 80.369 85.3471 79.8712 85.2269L79.7858 85.8838C79.6867 85.9049 81.995 85.7963 82.2565 87.4951C82.5286 89.2604 80.8456 89.7138 80.8456 89.7138C80.7075 90.008 80.4902 90.6956 79.2997 90.9898C78.8093 91.1111 74.3371 92.3364 70.563 91.3979C70.563 91.3979 70.9679 91.903 71.086 91.9441C71.6544 92.1456 72.2555 92.2647 72.8566 92.3196C73.6095 92.3892 74.3529 92.3343 75.1059 92.3006C75.6384 92.2774 76.172 92.2647 76.7045 92.2394C78.6659 92.1434 80.6147 91.9209 82.5634 91.6837C83.0633 91.6225 83.5821 91.593 84.0714 91.4707C84.3645 91.3979 84.7547 91.284 84.8928 90.9898C85.109 90.53 84.9899 89.8646 84.9266 89.3848C84.8928 89.1286 84.8528 88.8681 84.7779 88.6192L84.7758 88.6203Z" fill="#18184C"></path><path d="M65.9538 96.6725C75.3262 96.6725 82.9241 89.3975 82.9241 80.4234C82.9241 71.4493 75.3262 64.1743 65.9538 64.1743C56.5813 64.1743 48.9834 71.4493 48.9834 80.4234C48.9834 89.3975 56.5813 96.6725 65.9538 96.6725Z" fill="#B7B7F9"></path><path d="M82.6099 80.0763C82.6025 83.4096 81.5058 86.6544 79.5191 89.3286C77.564 91.9597 74.7843 93.959 71.6956 95.0399C68.3918 96.1957 64.7527 96.3233 61.3761 95.4016C58.1862 94.5306 55.2799 92.7263 53.1129 90.226C50.9575 87.7395 49.6014 84.5844 49.3462 81.2995C49.0889 77.9831 49.9177 74.6529 51.6935 71.8405C53.4556 69.0503 56.0803 66.8611 59.1005 65.5471C62.2703 64.1678 65.8747 63.7966 69.2639 64.4557C72.5551 65.0947 75.63 66.6987 78.0017 69.0735C80.3089 71.385 81.8791 74.3745 82.4116 77.6003C82.5466 78.4186 82.6078 79.2474 82.6099 80.0763C82.6099 80.4812 83.2405 80.4823 83.2394 80.0763C83.2321 76.6291 82.1037 73.242 80.0421 70.4791C77.9901 67.731 75.1291 65.6558 71.896 64.5169C68.4825 63.3147 64.6978 63.1913 61.2084 64.1436C57.8994 65.0473 54.8613 66.9286 52.6226 69.5332C50.3933 72.1273 49.0024 75.3689 48.7219 78.7824C48.4382 82.2338 49.3124 85.7359 51.1673 88.659C52.9906 91.5315 55.6944 93.8135 58.8136 95.1633C62.1427 96.6038 65.8705 96.9961 69.4305 96.3043C72.8219 95.6452 76.0044 93.9706 78.4456 91.5242C80.8868 89.0777 82.4907 86.0016 83.0296 82.6493C83.1667 81.7983 83.2373 80.9378 83.2384 80.0752C83.2384 79.6703 82.6099 79.6692 82.6088 80.0752L82.6099 80.0763Z" fill="#161670"></path><path d="M65.3528 64.1785C68.6545 64.1858 71.8887 65.2087 74.584 67.1184C77.1939 68.967 79.2271 71.6202 80.3227 74.6245C81.4648 77.7554 81.5966 81.2205 80.6897 84.4284C79.8134 87.5297 77.9817 90.3115 75.5025 92.3668C72.9959 94.4452 69.8482 95.717 66.6013 95.9638C66.1858 95.9954 65.7693 96.0102 65.3517 96.0112C64.9468 96.0112 64.9457 96.6418 65.3517 96.6408C68.7673 96.6334 72.1428 95.5778 74.9288 93.5953C77.6484 91.6603 79.7469 88.9301 80.9048 85.7982C82.1048 82.5503 82.2367 78.9238 81.296 75.5936C80.3902 72.3847 78.491 69.4774 75.9201 67.3547C73.3007 65.1918 70.0601 63.8726 66.673 63.6006C66.2333 63.5647 65.7925 63.5489 65.3517 63.5479C64.9468 63.5479 64.9457 64.1763 65.3517 64.1774L65.3528 64.1785Z" fill="#161670"></path><path d="M81.5512 81.8985C81.9772 81.8964 82.4053 81.9207 82.8271 81.9787C82.9115 81.9903 82.9959 81.9586 83.0212 81.869C83.0412 81.7952 82.9959 81.6866 82.9115 81.675C82.4602 81.6138 82.0067 81.5811 81.5512 81.5832C81.3487 81.5843 81.3477 81.8996 81.5512 81.8985Z" fill="#161670"></path><path d="M81.643 80.7892C82.0004 80.7892 82.3579 80.7892 82.7165 80.7892C82.8019 80.7892 82.8736 80.7165 82.8736 80.6321C82.8736 80.5477 82.8019 80.475 82.7165 80.475C82.359 80.475 82.0015 80.475 81.643 80.475C81.5575 80.475 81.4858 80.5477 81.4858 80.6321C81.4858 80.7165 81.5575 80.7892 81.643 80.7892Z" fill="#161670"></path><path d="M81.5945 79.5533C81.991 79.6472 82.4012 79.682 82.8072 79.6503C82.8915 79.644 82.9643 79.5829 82.9643 79.4932C82.9643 79.4131 82.8926 79.3287 82.8072 79.3361C82.4275 79.3656 82.0479 79.3382 81.6778 79.2496C81.5955 79.2296 81.5069 79.276 81.4837 79.3593C81.4605 79.4426 81.5101 79.5333 81.5934 79.5533H81.5945Z" fill="#161670"></path><path d="M81.6134 78.4692C81.9909 78.4407 82.3685 78.4112 82.746 78.3827C82.8303 78.3764 82.9031 78.3152 82.9031 78.2256C82.9031 78.1454 82.8314 78.0611 82.746 78.0684C82.3685 78.0969 81.9909 78.1264 81.6134 78.1549C81.5291 78.1612 81.4563 78.2224 81.4563 78.312C81.4563 78.3922 81.528 78.4765 81.6134 78.4692Z" fill="#161670"></path><path d="M81.4279 77.4306C81.8465 77.4106 82.2662 77.4074 82.6859 77.4201C82.8884 77.4264 82.8884 77.1111 82.6859 77.1048C82.2662 77.0921 81.8476 77.0963 81.4279 77.1153C81.3425 77.1195 81.2708 77.1849 81.2708 77.2724C81.2708 77.3547 81.3425 77.4338 81.4279 77.4296V77.4306Z" fill="#161670"></path><path d="M81.1526 76.4457C81.5564 76.4236 81.9593 76.3761 82.3579 76.3034C82.4412 76.2886 82.4886 76.1863 82.4675 76.1093C82.4433 76.0207 82.3579 75.9838 82.2735 75.9997C81.9023 76.0671 81.528 76.1104 81.1515 76.1304C81.0661 76.1346 80.9944 76.2 80.9944 76.2875C80.9944 76.3698 81.0661 76.4499 81.1515 76.4447L81.1526 76.4457Z" fill="#161670"></path><path d="M80.3565 73.6543C80.6729 73.6227 80.985 73.5573 81.2855 73.4529C81.3636 73.4255 81.4226 73.3443 81.3952 73.2589C81.3699 73.1819 81.2845 73.1197 81.2012 73.1492C81.0609 73.1977 80.9175 73.2388 80.772 73.2715C80.7003 73.2874 80.6286 73.3011 80.5569 73.3127C80.5379 73.3158 80.5178 73.319 80.4989 73.3222C80.4936 73.3222 80.4482 73.3295 80.4736 73.3253C80.4345 73.3306 80.3955 73.3348 80.3565 73.339C80.2753 73.3475 80.1952 73.4055 80.1994 73.4961C80.2025 73.5742 80.269 73.6628 80.3565 73.6533V73.6543Z" fill="#161670"></path><path d="M79.9094 72.7601C80.2363 72.6768 80.5621 72.5925 80.889 72.5092C80.9692 72.4891 81.025 72.3953 80.9987 72.3151C80.9723 72.235 80.8901 72.1833 80.8047 72.2055C80.4778 72.2888 80.1519 72.3731 79.825 72.4564C79.7449 72.4765 79.689 72.5703 79.7153 72.6505C79.7417 72.7306 79.824 72.7823 79.9094 72.7601Z" fill="#161670"></path><path d="M79.4475 71.9248C79.7427 71.8499 80.038 71.7751 80.3343 71.7002C80.4145 71.6802 80.4703 71.5863 80.444 71.5062C80.4176 71.426 80.3354 71.3744 80.2499 71.3965C79.9547 71.4714 79.6594 71.5462 79.3631 71.6211C79.283 71.6412 79.2271 71.735 79.2534 71.8152C79.2798 71.8953 79.362 71.947 79.4475 71.9248Z" fill="#161670"></path><path d="M79.017 71.156C79.2427 71.078 79.4694 70.9999 79.6951 70.9219C79.7731 70.8955 79.8322 70.8122 79.8047 70.7279C79.7794 70.6509 79.694 70.5887 79.6107 70.6182C79.385 70.6962 79.1583 70.7743 78.9326 70.8523C78.8546 70.8787 78.7956 70.962 78.823 71.0463C78.8483 71.1233 78.9337 71.1855 79.017 71.156Z" fill="#161670"></path><path d="M78.3084 70.2566C78.5246 70.1785 78.7408 70.1016 78.957 70.0235C79.0339 69.9961 79.0941 69.9149 79.0666 69.8295C79.0424 69.7536 78.9559 69.6892 78.8726 69.7198C78.6564 69.7979 78.4403 69.8748 78.2241 69.9529C78.1471 69.9803 78.087 70.0615 78.1144 70.1469C78.1387 70.2228 78.2251 70.2871 78.3084 70.2566Z" fill="#161670"></path><path d="M77.6737 69.3885C77.8488 69.3105 78.0238 69.2314 78.1989 69.1534C78.2326 69.1386 78.2621 69.0933 78.2716 69.0595C78.2822 69.0216 78.2769 68.972 78.2558 68.9382C78.2347 68.9045 78.202 68.875 78.162 68.8655C78.1177 68.856 78.0818 68.8634 78.0407 68.8813C77.8656 68.9593 77.6906 69.0384 77.5155 69.1165C77.4818 69.1312 77.4523 69.1766 77.4428 69.2103C77.4322 69.2483 77.4375 69.2978 77.4586 69.3316C77.4797 69.3653 77.5124 69.3949 77.5524 69.4043C77.5967 69.4138 77.6326 69.4065 77.6737 69.3885Z" fill="#161670"></path><path d="M76.9472 68.5788C77.079 68.505 77.2097 68.4302 77.3416 68.3563C77.4133 68.3163 77.4438 68.2119 77.3985 68.1412C77.3532 68.0706 77.2593 68.041 77.1834 68.0843C77.0516 68.1581 76.9208 68.233 76.789 68.3068C76.7173 68.3469 76.6867 68.4512 76.732 68.5219C76.7774 68.5926 76.8712 68.6221 76.9472 68.5788Z" fill="#161670"></path><path d="M76.112 67.805C76.1289 67.7891 76.1468 67.7754 76.1647 67.7607L76.1331 67.7849C76.1953 67.7375 76.2617 67.6984 76.3334 67.6679L76.2955 67.6837C76.3134 67.6763 76.3313 67.6689 76.3503 67.6626C76.3893 67.6489 76.4231 67.6267 76.4442 67.5898C76.4642 67.5561 76.4726 67.5065 76.46 67.4686C76.4473 67.4306 76.4241 67.3937 76.3872 67.3747C76.3503 67.3557 76.306 67.3452 76.266 67.3589C76.1257 67.4085 75.9992 67.4823 75.8884 67.5814C75.8589 67.6078 75.842 67.6542 75.842 67.6932C75.842 67.7322 75.8589 67.7775 75.8884 67.805C75.918 67.8324 75.958 67.8535 76.0002 67.8513C76.0424 67.8492 76.0793 67.8345 76.112 67.805Z" fill="#161670"></path><path d="M74.9688 66.9823C75.0195 66.9612 75.0711 66.9401 75.1217 66.9201C75.1418 66.9148 75.1597 66.9053 75.1755 66.8916C75.1924 66.88 75.2061 66.8663 75.2156 66.8473C75.2272 66.8294 75.2335 66.8094 75.2346 66.7883C75.2388 66.7672 75.2388 66.7461 75.2314 66.725L75.2156 66.6871C75.2019 66.6639 75.1829 66.6449 75.1587 66.6301L75.1207 66.6143C75.0933 66.6069 75.0648 66.6069 75.0374 66.6143C74.9868 66.6354 74.9351 66.6565 74.8845 66.6765C74.8644 66.6818 74.8465 66.6913 74.8307 66.705C74.8138 66.7166 74.8001 66.7303 74.7906 66.7493C74.779 66.7672 74.7727 66.7872 74.7716 66.8083C74.7674 66.8294 74.7674 66.8505 74.7748 66.8716L74.7906 66.9096C74.8043 66.9328 74.8233 66.9517 74.8476 66.9665L74.8855 66.9823C74.913 66.9897 74.9414 66.9897 74.9688 66.9823Z" fill="#161670"></path><path opacity="0.45" d="M54.3544 77.9462C54.7677 74.7215 57.0423 71.7594 59.9011 70.281C60.5655 69.9372 61.2741 69.683 62.0407 69.5639C62.3265 69.5196 62.4847 69.1611 62.4151 68.9048C62.3318 68.6001 62.0429 68.4862 61.756 68.5305C60.1848 68.7762 58.739 69.5955 57.5137 70.5794C56.1165 71.7014 54.9481 73.163 54.1941 74.7901C53.728 75.7971 53.4253 76.8443 53.284 77.9452C53.2471 78.232 53.5561 78.4809 53.8197 78.4809C54.1392 78.4809 54.3185 78.2341 54.3554 77.9452L54.3544 77.9462Z" fill="white"></path><path d="M79.1565 79.9647C79.1491 82.7286 78.2454 85.4187 76.6014 87.6395C74.969 89.8445 72.6449 91.519 70.0581 92.4207C67.3174 93.375 64.3015 93.4804 61.5018 92.718C58.838 91.9925 56.4116 90.4846 54.6052 88.3945C52.8252 86.334 51.7032 83.7262 51.487 81.0076C51.2655 78.2395 51.9563 75.4556 53.44 73.1093C54.9015 70.7967 57.0749 68.9808 59.5773 67.8873C62.2283 66.7294 65.2432 66.4183 68.0799 66.9741C70.7952 67.5066 73.3345 68.8279 75.297 70.783C77.2289 72.7075 78.5449 75.2014 78.992 77.8947C79.1059 78.579 79.1565 79.2719 79.1586 79.9647C79.1586 80.2684 79.6321 80.2694 79.631 79.9647C79.6237 77.1006 78.6862 74.2903 76.9705 71.9967C75.2759 69.7316 72.9169 68.0202 70.2522 67.0774C67.4187 66.0746 64.2762 65.9681 61.3773 66.7568C58.6303 67.5045 56.1079 69.0662 54.2498 71.228C52.4034 73.375 51.2508 76.0609 51.0177 78.887C50.7847 81.7131 51.5018 84.6383 53.0319 87.0595C54.5409 89.4459 56.7828 91.3419 59.3706 92.4649C62.1281 93.6618 65.2179 93.9887 68.1684 93.4193C70.984 92.8752 73.6266 91.4874 75.6545 89.4575C77.6422 87.4676 79.012 84.8745 79.4581 82.0916C79.5709 81.3883 79.6279 80.6775 79.63 79.9647C79.63 79.661 79.1586 79.6599 79.1576 79.9647H79.1565Z" fill="#161670"></path><path d="M65.3528 90.4487L58.9192 81.5022L65.3528 85.3449V90.4487Z" fill="#C7C7FF"></path><path d="M65.3821 90.3772L71.8157 81.4307L65.3821 85.2733V90.3772Z" fill="#8C8CEA"></path><path d="M71.7873 80.3032L65.3547 84.0415V69.4807L71.7873 80.3032Z" fill="#8C8CEA"></path><path d="M58.9192 80.3032L65.3528 84.0415V69.4807L58.9192 80.3032Z" fill="#C7C7FF"></path><path d="M65.3528 84.0412L58.9192 80.303L65.3528 77.382V84.0412Z" fill="#8686EA"></path><path d="M71.6673 80.0985C69.7902 81.1899 67.9132 82.2803 66.0351 83.3717C65.7683 83.5267 65.5005 83.6817 65.2337 83.8378L65.589 84.0413V69.4805C65.4425 69.5206 65.2959 69.5596 65.1493 69.5997C65.8738 70.8187 66.5993 72.0388 67.3237 73.2578C68.4784 75.2002 69.6342 77.1437 70.7889 79.0861C71.0536 79.5311 71.3182 79.9761 71.5819 80.4211C71.7369 80.6827 72.146 80.4454 71.99 80.1828C71.2655 78.9638 70.54 77.7437 69.8156 76.5247C68.6609 74.5823 67.5051 72.6388 66.3504 70.6964C66.0857 70.2514 65.821 69.8064 65.5574 69.3614C65.4382 69.161 65.1177 69.2454 65.1177 69.4805V84.0413C65.1177 84.2206 65.318 84.3355 65.473 84.2448C67.3501 83.1534 69.2271 82.063 71.1052 80.9716C71.372 80.8166 71.6399 80.6616 71.9067 80.5055C72.1692 80.3526 71.932 79.9445 71.6683 80.0974L71.6673 80.0985Z" fill="#161670"></path><path d="M65.3789 84.0412L71.8125 80.303L65.3789 77.382V84.0412Z" fill="#6363CE"></path><path d="M58.8001 80.5064C60.6772 81.5978 62.5542 82.6882 64.4323 83.7796C64.6991 83.9346 64.967 84.0896 65.2338 84.2457C65.3888 84.3353 65.5891 84.2214 65.5891 84.0422C65.5891 82.3971 65.5891 80.7521 65.5891 79.107C65.5891 76.4971 65.5891 73.8871 65.5891 71.2772C65.5891 70.6782 65.5891 70.0803 65.5891 69.4814C65.5891 69.2462 65.2686 69.1618 65.1494 69.3622C64.4249 70.5812 63.6994 71.8013 62.975 73.0203C61.8203 74.9628 60.6645 76.9062 59.5098 78.8487C59.2451 79.2937 58.9805 79.7387 58.7168 80.1837C58.5608 80.4452 58.9689 80.6835 59.1249 80.422C59.8494 79.203 60.5749 77.9829 61.2994 76.7639C62.454 74.8215 63.6098 72.878 64.7645 70.9355C65.0292 70.4905 65.2939 70.0455 65.5575 69.6005C65.4109 69.5605 65.2643 69.5214 65.1178 69.4814C65.1178 71.1264 65.1178 72.7715 65.1178 74.4165C65.1178 77.0264 65.1178 79.6364 65.1178 82.2463C65.1178 82.8453 65.1178 83.4432 65.1178 84.0422L65.4731 83.8386C63.5961 82.7472 61.719 81.6568 59.841 80.5654C59.5742 80.4104 59.3063 80.2554 59.0395 80.0993C58.7727 79.9432 58.5376 80.3545 58.8012 80.5074L58.8001 80.5064Z" fill="#161670"></path><path d="M65.472 83.838C63.595 82.7466 61.7179 81.6562 59.8398 80.5648C59.573 80.4097 59.3052 80.2547 59.0384 80.0987V80.5068C60.9165 79.6537 62.7946 78.8016 64.6727 77.9485C64.9395 77.8272 65.2052 77.707 65.472 77.5857C65.3539 77.5183 65.2347 77.4497 65.1166 77.3822C65.1166 79.3268 65.1166 81.2723 65.1166 83.2169C65.1166 83.4921 65.1166 83.7663 65.1166 84.0415C65.1166 84.3452 65.5891 84.3463 65.5891 84.0415C65.5891 82.097 65.5891 80.1514 65.5891 78.2069C65.5891 77.9316 65.5891 77.6575 65.5891 77.3822C65.5891 77.1892 65.3919 77.107 65.2337 77.1787C63.3556 78.0318 61.4775 78.8839 59.5994 79.737C59.3326 79.8582 59.0669 79.9784 58.8001 80.0997C58.6345 80.1746 58.6588 80.4256 58.8001 80.5078C60.6771 81.5992 62.5542 82.6896 64.4323 83.781C64.699 83.9361 64.9669 84.0911 65.2337 84.2471C65.4973 84.4 65.7356 83.9919 65.472 83.839V83.838Z" fill="#161670"></path><path d="M65.4718 84.246C67.3489 83.1546 69.2259 82.0642 71.104 80.9728C71.3708 80.8178 71.6387 80.6628 71.9054 80.5067C72.0468 80.4245 72.071 80.1745 71.9054 80.0986C70.0273 79.2455 68.1493 78.3935 66.2712 77.5404C66.0044 77.4191 65.7386 77.2989 65.4718 77.1776C65.3136 77.1059 65.1165 77.1881 65.1165 77.3811C65.1165 79.3257 65.1165 81.2712 65.1165 83.2158C65.1165 83.491 65.1165 83.7652 65.1165 84.0404C65.1165 84.3441 65.5889 84.3452 65.5889 84.0404C65.5889 82.0959 65.5889 80.1503 65.5889 78.2058C65.5889 77.9305 65.5889 77.6564 65.5889 77.3811C65.4708 77.4486 65.3516 77.5172 65.2335 77.5846C67.1116 78.4377 68.9897 79.2898 70.8678 80.1429C71.1346 80.2642 71.4003 80.3844 71.6671 80.5057V80.0976C69.7901 81.189 67.913 82.2794 66.0349 83.3708C65.7681 83.5258 65.5003 83.6808 65.2335 83.8369C64.9667 83.993 65.2082 84.3979 65.4718 84.245V84.246Z" fill="#161670"></path><path d="M65.5563 90.3297C64.8308 89.3205 64.1053 88.3113 63.3798 87.3032C62.2241 85.6961 61.0694 84.0901 59.9136 82.483C59.65 82.116 59.3864 81.7501 59.1227 81.3831C59.0152 81.4907 58.9076 81.5983 58.8 81.7058C60.6824 82.8299 62.5636 83.954 64.4459 85.0782C64.7085 85.2353 64.9711 85.3924 65.2337 85.5485L65.1166 85.345V90.4488C65.1166 90.7525 65.589 90.7536 65.589 90.4488V86.2434C65.589 85.9534 65.6207 85.6434 65.589 85.3544C65.5658 85.1425 65.337 85.0613 65.1736 84.9632C64.8161 84.7502 64.4586 84.5361 64.1022 84.3231C63.0846 83.7147 62.0669 83.1073 61.0493 82.4988C60.3797 82.0992 59.7101 81.6984 59.0405 81.2988C58.8486 81.1838 58.5754 81.4243 58.7178 81.6215C59.4433 82.6306 60.1688 83.6398 60.8943 84.6479C62.0501 86.255 63.2048 87.861 64.3605 89.4681C64.6242 89.8351 64.8878 90.201 65.1514 90.568C65.3275 90.8126 65.7377 90.5775 65.5595 90.3297H65.5563Z" fill="#161670"></path><path d="M65.5562 90.5677C66.2817 89.5585 67.0072 88.5494 67.7327 87.5412C68.8885 85.9342 70.0432 84.3281 71.1989 82.721C71.4626 82.3541 71.7262 81.9881 71.9898 81.6212C72.1322 81.4229 71.8591 81.1835 71.6671 81.2985C70.0896 82.2412 68.512 83.1829 66.9355 84.1257C66.5369 84.364 66.1383 84.6012 65.7407 84.8396C65.5762 84.9376 65.3875 85.0241 65.2356 85.1412C65.0416 85.2909 65.1186 85.6874 65.1186 85.9036C65.1186 86.4466 65.1186 86.9887 65.1186 87.5317C65.1186 88.504 65.1186 89.4773 65.1186 90.4496C65.1186 90.7533 65.591 90.7544 65.591 90.4496C65.591 88.9638 65.591 87.478 65.591 85.9922C65.591 85.777 65.591 85.5609 65.591 85.3457L65.474 85.5493C67.3563 84.4251 69.2375 83.301 71.1198 82.1769C71.3824 82.0198 71.645 81.8627 71.9076 81.7066L71.5849 81.3839C70.8594 82.3931 70.1339 83.4023 69.4084 84.4104C68.2526 86.0175 67.0979 87.6235 65.9422 89.2306C65.6785 89.5975 65.4149 89.9635 65.1513 90.3304C64.9731 90.5772 65.3833 90.8134 65.5594 90.5688L65.5562 90.5677Z" fill="#161670"></path><g opacity="0.27"><path d="M65.9539 63.7145L62.4434 65.9131C71.1822 65.9131 79.6531 70.7703 79.3916 79.9646C79.1701 87.7723 72.0922 95.3026 64.1633 96.1241C64.7517 96.1831 65.3486 96.2147 65.9539 96.2147C75.3264 96.2147 82.9242 88.9396 82.9242 79.9657C82.9242 70.9917 75.3264 63.7166 65.9539 63.7166V63.7145Z" fill="#18184C"></path></g><g opacity="0.3"><path d="M65.3528 66.5828C57.5694 66.5828 51.2603 72.6241 51.2603 80.0764C51.2603 87.5287 57.5694 93.57 65.3528 93.57C73.1362 93.57 79.4454 87.5287 79.4454 80.0764C79.4454 72.6241 73.1362 66.5828 65.3528 66.5828ZM64.9922 92.4807C57.7877 92.4807 51.9467 86.8084 51.9467 79.8117C51.9467 72.815 57.7877 67.1427 64.9922 67.1427C72.1967 67.1427 78.0376 72.815 78.0376 79.8117C78.0376 86.8084 72.1967 92.4807 64.9922 92.4807Z" fill="#18184C"></path></g><path opacity="0.35" d="M58.0735 65.1622C59.361 68.292 63.3798 68.1444 66.2017 67.9999C68.3086 67.8924 70.2964 67.9989 72.5267 67.712C73.4705 67.5908 74.7876 69.6851 76.1564 69.5775C76.3651 69.5606 76.8692 69.5817 77.2636 69.1356C77.7033 68.6379 77.6854 68.0969 77.3553 67.5117C75.1503 63.592 57.4492 63.6416 58.0745 65.1633L58.0735 65.1622Z" fill="#161670"></path><path d="M72.3145 63.1871C73.1687 63.3453 74.7252 63.301 75.3473 63.9074C75.5509 64.1056 76.946 66.6512 76.9861 67.6931C76.9977 67.9884 76.5052 68.6464 76.2226 68.7328C76.0665 68.7814 75.8978 68.7255 75.7523 68.6527C75.1069 68.3332 74.6819 67.7068 74.1621 67.2101C73.6411 66.7134 72.8682 66.3254 72.2175 66.6354" fill="#FFDAC7"></path><path d="M58.8769 54.0167C56.5801 58.0017 56.9872 62.4634 57.9837 64.5377C59.8998 68.5248 69.4906 66.8028 72.2176 66.6361C72.2176 66.6361 72.322 63.9788 72.1142 62.7893C68.3275 61.0683 65.185 61.1864 64.3646 59.6447" fill="#5A44E0"></path><path d="M58.9371 53.1871C57.8973 55.1781 57.2646 57.3673 57.099 59.6081C56.9788 61.2289 57.0632 62.9921 57.6896 64.5127C58.9771 67.6425 62.9959 67.4948 65.8178 67.3504C67.9247 67.2428 70.0306 67.0045 72.1428 67.0625C72.321 67.0678 72.4465 66.9138 72.4581 66.7472C72.4919 66.2421 72.5108 65.7349 72.5224 65.2287C72.5319 64.7879 72.534 64.3471 72.5193 63.9063C72.5129 63.7218 72.5035 63.5372 72.4876 63.3527C72.4718 63.1682 72.476 62.9288 72.4022 62.7601C72.2999 62.527 71.8591 62.4216 71.6388 62.3235C71.373 62.2043 71.1062 62.0862 70.8394 61.9702C70.4134 61.7846 69.9853 61.6033 69.554 61.4314C68.9097 61.173 68.2548 60.9421 67.5905 60.7396C66.7648 60.4886 65.9296 60.2651 65.1007 60.0246C64.7106 59.9118 64.5439 60.5192 64.9331 60.632C65.9971 60.941 67.0727 61.2162 68.123 61.5706C69.4327 62.0124 70.6971 62.5818 71.9551 63.1534L71.8106 62.9657C71.9382 63.726 71.9098 64.5243 71.8908 65.293C71.8792 65.7781 71.8602 66.2642 71.8275 66.7483L72.1428 66.4329C70.347 66.3844 68.5532 66.5511 66.7627 66.666C65.0881 66.7736 63.3597 66.8917 61.6957 66.6122C60.4134 66.396 59.1206 65.892 58.4668 64.693C57.7729 63.4212 57.6622 61.8121 57.6927 60.3948C57.7434 58.001 58.375 55.6252 59.4823 53.5056C59.67 53.1471 59.1269 52.8275 58.9381 53.1882L58.9371 53.1871Z" fill="#161670"></path><path d="M72.4231 63.5982C73.253 63.5244 74.221 63.7522 74.9276 64.194C75.3747 64.4734 75.7617 64.9448 76.0717 65.3624C76.4672 65.896 76.8826 66.593 76.774 67.2869C76.7266 67.5885 76.5136 68.0546 76.2194 68.1896C76.115 68.2381 75.9041 68.2202 75.8134 68.1843C75.6963 68.1379 75.5793 68.0166 75.4801 67.9418C75.3599 67.8511 75.2418 67.7572 75.1269 67.6602C74.665 67.2732 74.2622 66.7934 73.7307 66.4992C73.2003 66.206 72.6234 66.1185 72.0593 66.3631C71.6881 66.5245 72.0087 67.0665 72.3767 66.9073C72.9282 66.6679 73.5483 67.0707 73.9395 67.4335C74.3676 67.831 74.7968 68.218 75.2671 68.565C75.4833 68.7242 75.6415 68.817 75.9114 68.836C76.1202 68.8497 76.3712 68.836 76.5557 68.7253C76.9322 68.5017 77.2264 68.0282 77.3435 67.6159C77.5755 66.8008 77.2243 65.9477 76.7761 65.2749C76.4324 64.7592 76.0095 64.2531 75.5286 63.8566C75.1047 63.5075 74.5722 63.2987 74.047 63.1553C73.5219 63.0119 72.963 62.9201 72.4231 62.9686C72.0224 63.0045 72.0192 63.6351 72.4231 63.5982Z" fill="#161670"></path><path d="M74.7201 66.359C74.7475 66.3675 74.7749 66.3769 74.8023 66.3864C74.873 66.4107 74.7412 66.3559 74.8097 66.3896C74.8582 66.4139 74.9067 66.4381 74.9542 66.4655C75.0016 66.4929 75.0512 66.5256 75.0976 66.5583C75.105 66.5636 75.1788 66.6195 75.1461 66.5942C75.1134 66.5689 75.1872 66.6279 75.1946 66.6342C75.3834 66.7924 75.5532 66.9727 75.7092 67.1626C75.7293 67.1868 75.7493 67.2111 75.7683 67.2364C75.782 67.2532 75.8178 67.3007 75.7852 67.2575C75.8221 67.306 75.859 67.3555 75.8938 67.4051C75.9602 67.499 76.0245 67.5939 76.0857 67.6909C76.1795 67.8406 76.2692 67.9956 76.3388 68.158C76.4042 68.3099 76.6393 68.3552 76.7701 68.2709C76.9283 68.1686 76.9525 68.003 76.8829 67.8396C76.7047 67.4241 76.4252 67.0413 76.1374 66.6965C75.8062 66.2989 75.395 65.9056 74.8878 65.7516C74.7296 65.7042 74.5377 65.8086 74.5008 65.972C74.4617 66.1418 74.5514 66.3084 74.7211 66.359H74.7201Z" fill="#161670"></path><path d="M64.7599 59.2422C64.0323 59.5659 63.4787 60.2661 63.3268 61.0475C63.3026 61.173 63.3627 61.3027 63.4913 61.3386C63.6073 61.3702 63.7571 61.2995 63.7824 61.174C63.7992 61.0855 63.8214 60.9979 63.8488 60.9125C63.8625 60.8693 63.8773 60.8271 63.8941 60.7849C63.8984 60.7754 63.9152 60.7333 63.9026 60.7617C63.9121 60.7396 63.9226 60.7164 63.9332 60.6942C63.9701 60.6162 64.0112 60.5413 64.0565 60.4675C64.0797 60.4296 64.105 60.3916 64.1304 60.3547C64.142 60.3378 64.1536 60.3209 64.1662 60.3051C64.1736 60.2956 64.181 60.2851 64.1884 60.2756C64.1789 60.2883 64.1799 60.2872 64.1884 60.2756C64.2991 60.1385 64.4235 60.013 64.5627 59.9044C64.5395 59.9223 64.5754 59.8949 64.5838 59.8896C64.6007 59.878 64.6165 59.8654 64.6334 59.8538C64.6734 59.8264 64.7156 59.799 64.7567 59.7747C64.8337 59.7283 64.9149 59.6882 64.9972 59.6513C65.1142 59.5997 65.1416 59.4299 65.0815 59.3286C65.0109 59.2084 64.8759 59.1916 64.7588 59.2443L64.7599 59.2422Z" fill="#161670"></path><path opacity="0.21" d="M58.4046 61.5071C58.4141 63.0594 59.0373 64.5705 60.4198 65.3793C60.9597 65.6957 61.5503 65.8866 62.1703 65.9403C62.7334 65.9888 63.2987 66.011 63.8628 66.0352C64.2741 66.0532 64.6853 66.069 65.0966 66.0827C65.7051 66.1027 65.704 65.1579 65.0966 65.1378C64.253 65.1104 63.4083 65.0788 62.5658 65.025C62.3612 65.0124 62.1566 64.9934 61.952 64.9754C61.9172 64.9723 62.0628 65.0039 61.9689 64.9776C61.9288 64.966 61.8835 64.9586 61.8434 64.9491C61.6526 64.9006 61.4627 64.8405 61.2814 64.7635C60.7277 64.5283 60.2363 64.1403 59.9105 63.633C59.5024 62.9982 59.3526 62.2558 59.3484 61.5103C59.3442 60.9029 58.3994 60.9008 58.4036 61.5103L58.4046 61.5071Z" fill="white"></path><path d="M75.3106 65.5007C75.2494 65.4975 75.2262 65.4827 75.2874 65.5028C75.299 65.507 75.3106 65.5133 75.3222 65.5165C75.2231 65.4901 75.2663 65.4922 75.2969 65.507C75.3654 65.5407 75.4329 65.5787 75.4983 65.6188C75.5826 65.6705 75.6638 65.7263 75.744 65.7833C75.7872 65.8149 75.8378 65.8444 75.8769 65.8814C75.8136 65.8191 75.8821 65.8856 75.8979 65.8982C75.9211 65.9162 75.9433 65.9351 75.9665 65.9531C76.15 66.1039 76.3261 66.2663 76.4843 66.4445C76.5117 66.4761 76.5834 66.5341 76.5929 66.5742C76.5644 66.5373 76.5612 66.533 76.5813 66.5594C76.5897 66.57 76.5971 66.5816 76.6055 66.5921C76.6213 66.6132 76.6361 66.6353 76.6509 66.6575C76.6783 66.6986 76.7047 66.7418 76.7278 66.7861C76.7394 66.8072 76.7479 66.8283 76.7595 66.8494C76.7869 66.8979 76.731 66.7735 76.7595 66.8515C76.8175 67.0055 76.9746 67.1267 77.1465 67.0719C77.2973 67.0234 77.4281 66.8494 77.3669 66.6849C77.2235 66.3032 76.943 65.9889 76.6477 65.7158C76.3714 65.4595 76.0677 65.2191 75.7408 65.0304C75.608 64.9534 75.4656 64.8806 75.3085 64.8711C75.144 64.8616 74.9858 65.023 74.9932 65.1864C75.0016 65.3646 75.1313 65.4912 75.3085 65.5017L75.3106 65.5007Z" fill="#161670"></path><path opacity="0.35" d="M109.363 71.2995C110.866 72.9161 111.412 73.3938 111.412 73.3938C111.763 74.6624 110.832 75.5503 110.227 75.8846C112.092 75.351 113.125 74.887 114.989 74.3534L114.824 72.4574C114.824 72.4574 114.993 71.5821 115.203 70.5603C115.785 67.7321 116.468 64.9197 116.736 62.0451C116.77 61.6844 116.946 59.0049 116.946 59.0049C115.989 62.2834 113.155 72.6419 109.363 71.2985V71.2995Z" fill="#161670"></path><path opacity="0.35" d="M116.603 64.9938C116.303 66.4058 115.432 70.374 115.574 70.5712C115.708 70.7568 116.986 70.819 117.311 70.606C117.636 70.394 117.842 69.9638 117.699 69.6031C117.556 69.2425 117.001 69.0949 116.757 69.3975C116.896 68.8766 117.034 68.3546 117.172 67.8337C117.172 67.8337 117.769 67.2189 118.13 66.9183C119.826 65.5095 121.668 62.83 121.762 62.4335C121.735 62.502 117.448 66.8614 116.606 64.9949L116.603 64.9938Z" fill="#161670"></path><path opacity="0.3" d="M108.605 76.5585C108.207 78.1614 107.147 81.6729 105.691 83.0997C104.909 83.8663 103.324 83.8885 102.49 83.6217C102.49 83.6217 102.626 83.9623 102.609 83.9739C102.607 83.975 104.933 85.5884 106.83 84.5729C106.868 84.5518 109.268 86.4731 110.351 86.9772C110.795 87.1839 111.336 87.5013 111.457 88.0106C111.599 88.6032 111.43 89.0335 110.968 89.449C110.623 89.7579 110.076 89.9193 109.642 90.049C108.885 90.2757 108.089 90.378 107.3 90.398C106.041 90.4297 102.628 89.9899 101.654 89.6103C101.544 89.5671 101.324 90.7787 105.24 90.804C106.266 90.8103 107.29 90.9021 108.315 90.9168C109.574 90.9348 110.78 91.1984 112.038 91.1668C112.827 91.1467 113.684 91.1858 114.442 90.959C114.875 90.8293 115.422 90.668 115.767 90.359C116.229 89.9435 116.097 89.3952 115.956 88.8025C115.835 88.2932 115.101 87.8261 114.658 87.6204C113.574 87.1164 111.407 85.8773 111.31 85.9058C111.083 85.7972 110.862 85.6801 110.646 85.5557C110.682 85.523 110.291 85.2783 110.217 85.2952C109.937 85.1159 109.662 84.9272 109.394 84.73C109.396 84.7289 109.398 84.7279 109.4 84.7268C109.443 84.6962 109.08 84.42 109.004 84.4368C108.751 84.2418 108.501 84.0424 108.254 83.841C107.924 83.5732 107.638 83.4024 107.224 83.3792C107.425 82.97 107.473 82.4902 107.64 82.0684C108.682 79.4426 110.447 77.4137 111.338 75.8857L108.606 76.5596L108.605 76.5585Z" fill="#18184C"></path><path opacity="0.3" d="M99.5857 78.6898C95.1293 79.8276 90.9545 79.7517 86.9389 79.7464L86.7585 80.202C88.9625 80.2748 92.3644 80.4983 94.5662 80.3981C96.786 80.298 100.144 79.8487 100.144 79.8487C99.9917 79.4913 99.7344 79.0473 99.5857 78.6898Z" fill="#18184C"></path></g></svg>